<svg class="animated" id="freepik_stories-backpackers" xmlns="http://www.w3.org/2000/svg" viewBox="0 0 478.4 467.81" version="1.1" xmlns:xlink="http://www.w3.org/1999/xlink" xmlns:svgjs="http://svgjs.com/svgjs"><style>svg#freepik_stories-backpackers:not(.animated) .animable {opacity: 0;}svg#freepik_stories-backpackers.animated #freepik--background-simple--inject-24 {animation: 3s Infinite  linear floating;animation-delay: 0s;}svg#freepik_stories-backpackers.animated #freepik--Trees--inject-24 {animation: 3s Infinite  linear floating;animation-delay: 0s;}svg#freepik_stories-backpackers.animated #freepik--plants-2--inject-24 {animation: 3s Infinite  linear floating;animation-delay: 0s;}svg#freepik_stories-backpackers.animated #freepik--plants-1--inject-24 {animation: 3s Infinite  linear floating;animation-delay: 0s;}svg#freepik_stories-backpackers.animated #freepik--Character--inject-24 {animation: 3s Infinite  linear floating;animation-delay: 0s;}            @keyframes floating {                0% {                    opacity: 1;                    transform: translateY(0px);                }                50% {                    transform: translateY(-10px);                }                100% {                    opacity: 1;                    transform: translateY(0px);                }            }        </style><g id="freepik--background-simple--inject-24" class="animable" style="transform-origin: 239.197px 223.776px;"><g id="elh2k9huskk2n" class="animable" style="transform-origin: 239.197px 223.776px;"><path d="M467.08,170.11c-1.96-6.32-4.29-12.5-7.02-18.51-15.69-34.5-36.6-67.03-64.89-92.58C351.14,19.27,288.25-3.81,228.4,1,157.38,6.7,114,55.05,86.21,117.3c-3.88,8.7-7.42,17.55-10.65,26.5-10.55,29.27-17.17,59.95-28.68,88.86-11.8,29.61-35.93,52.43-43.69,83.94-4.38,17.78-4.38,36.75,.8,54.39,14.44,49.12,64.46,69.54,111.5,73.97,136.06,12.81,164.1-34.11,222.07-30.89,52.27,2.9,99.6-39.19,121.62-83.52,24.35-49.03,23.91-108.94,7.9-160.44Z" style="fill: rgb(0, 255, 136); transform-origin: 239.197px 223.776px;" id="elatjaled2h2b" class="animable"></path><g id="el0e5s54amxos"><path d="M467.08,170.11c-1.96-6.32-4.29-12.5-7.02-18.51-15.69-34.5-36.6-67.03-64.89-92.58C351.14,19.27,288.25-3.81,228.4,1,157.38,6.7,114,55.05,86.21,117.3c-3.88,8.7-7.42,17.55-10.65,26.5-10.55,29.27-17.17,59.95-28.68,88.86-11.8,29.61-35.93,52.43-43.69,83.94-4.38,17.78-4.38,36.75,.8,54.39,14.44,49.12,64.46,69.54,111.5,73.97,136.06,12.81,164.1-34.11,222.07-30.89,52.27,2.9,99.6-39.19,121.62-83.52,24.35-49.03,23.91-108.94,7.9-160.44Z" style="fill: rgb(255, 255, 255); opacity: 0.8; transform-origin: 239.197px 223.776px;" class="animable"></path></g></g></g><g id="freepik--Clouds--inject-24" class="animable" style="transform-origin: 160.555px 95.2707px;"><g id="elzlix6k8t5lm" class="animable" style="transform-origin: 217.335px 23.4057px;"><path d="M250.68,6.05c-2.97-2.39-6.77-4.34-11.63-5.26-14.15-2.71-21.09,14.44-26.47,19.05-5.38,4.61-12.3-8.46-20.76-3.85-8.46,4.61-10,12.3-13.07,13.84-3.08,1.54-8.46-3.85-15.38-.77-6.92,3.08-10.77,12.3-10.77,12.3h139.96s-3.5-15.88-10-19.99c-11.9-7.53-16.15,6.92-21.53,3.08,0,0-1.17-9.15-7.96-16.21" style="fill: none; stroke: rgb(38, 50, 56); stroke-linecap: round; stroke-linejoin: round; transform-origin: 222.58px 20.9307px;" id="ellwfbjizqvn" class="animable"></path><line x1="142.11" y1="36.61" x2="190.16" y2="36.61" style="fill: none; stroke: rgb(38, 50, 56); stroke-linecap: round; stroke-linejoin: round; transform-origin: 166.135px 36.61px;" id="el0s3s5qjm2gis" class="animable"></line><line x1="199.78" y1="46.31" x2="171.62" y2="46.31" style="fill: none; stroke: rgb(38, 50, 56); stroke-linecap: round; stroke-linejoin: round; transform-origin: 185.7px 46.31px;" id="elixyi21z6kg" class="animable"></line><line x1="204.91" y1="46.31" x2="202.3" y2="46.31" style="fill: none; stroke: rgb(38, 50, 56); stroke-linecap: round; stroke-linejoin: round; transform-origin: 203.605px 46.31px;" id="elmvtrfqhd828" class="animable"></line></g><g id="elo8s8habysj" class="animable" style="transform-origin: 72.695px 176.595px;"><path d="M92.27,166.41c-1.74-1.4-3.97-2.55-6.82-3.09-8.31-1.59-12.38,8.47-15.54,11.18-3.16,2.71-7.22-4.96-12.19-2.26-4.96,2.71-5.87,7.22-7.67,8.12-1.81,.9-4.96-2.26-9.03-.45-4.06,1.81-6.32,7.22-6.32,7.22H116.84s-2.05-9.32-5.87-11.73c-6.98-4.42-9.48,4.06-12.64,1.81,0,0-.69-5.37-4.67-9.51" style="fill: none; stroke: rgb(38, 50, 56); stroke-linecap: round; stroke-linejoin: round; transform-origin: 75.77px 175.14px;" id="el2j27xjk1ztt" class="animable"></path><line x1="28.55" y1="184.35" x2="56.75" y2="184.35" style="fill: none; stroke: rgb(38, 50, 56); stroke-linecap: round; stroke-linejoin: round; transform-origin: 42.65px 184.35px;" id="elrw4buipmvqm" class="animable"></line><line x1="62.4" y1="190.04" x2="45.87" y2="190.04" style="fill: none; stroke: rgb(38, 50, 56); stroke-linecap: round; stroke-linejoin: round; transform-origin: 54.135px 190.04px;" id="ell1q9n9xopqb" class="animable"></line><line x1="65.41" y1="190.04" x2="63.87" y2="190.04" style="fill: none; stroke: rgb(38, 50, 56); stroke-linecap: round; stroke-linejoin: round; transform-origin: 64.64px 190.04px;" id="elj1ia6xd64l" class="animable"></line></g></g><g id="freepik--Mountain--inject-24" class="animable" style="transform-origin: 233.495px 246.35px;"><g id="el7auygelpjbm" class="animable" style="transform-origin: 233.495px 246.35px;"><line x1="448.41" y1="296.77" x2="453.45" y2="300.96" style="fill: none; stroke: rgb(38, 50, 56); stroke-linecap: round; stroke-linejoin: round; transform-origin: 450.93px 298.865px;" id="eloj6dl3o47pm" class="animable"></line><polyline points="23.25 277.13 121.22 206.25 196.83 255.9 322.08 191.74 444.67 293.66" style="fill: none; stroke: rgb(38, 50, 56); stroke-linecap: round; stroke-linejoin: round; transform-origin: 233.96px 242.7px;" id="elo2crtgc7tlh" class="animable"></polyline><line x1="13.54" y1="284.16" x2="18.27" y2="280.74" style="fill: none; stroke: rgb(38, 50, 56); stroke-linecap: round; stroke-linejoin: round; transform-origin: 15.905px 282.45px;" id="el6npofffpjcw" class="animable"></line><polygon points="86.05 231.56 107.25 223.44 103.19 232.46 112.66 229.76 111.3 252.76 126.64 232.01 133.4 236.07 135.2 229.31 143.32 235.62 144.67 227.05 154.59 228.41 121.22 206.25 86.05 231.56" style="fill: none; stroke: rgb(38, 50, 56); stroke-linecap: round; stroke-linejoin: round; transform-origin: 120.32px 229.505px;" id="elnxq81rmulsd" class="animable"></polygon><polygon points="277.75 214.97 306.11 206.83 298.64 217.82 310.07 210.13 309.85 219.8 316.89 213.43 327.44 238.27 329.64 216.07 332.06 217.6 332.06 211.89 339.97 220.24 341.07 216.29 355.58 224.64 352.72 217.6 322.08 191.74 277.75 214.97" style="fill: none; stroke: rgb(38, 50, 56); stroke-linecap: round; stroke-linejoin: round; transform-origin: 316.665px 215.005px;" id="elr0f3v8jcvuc" class="animable"></polygon></g></g><g id="freepik--Trees--inject-24" class="animable" style="transform-origin: 284.135px 192.31px;"><g id="elva2lr3lkd2c" class="animable" style="transform-origin: 393.42px 246.92px;"><path d="M393.42,114.61c-42.96,.07-77.76,33.15-77.76,73.94,0,.2,0,.41,0,.61,.19,22.19,18.65,40.02,40.83,39.47,3.45-.09,7.12,.09,10.8,.68,7.35,1.19,13.04,5.5,16.9,10.48,2.13,2.75,5.34,4.49,8.82,4.51,.14,0,.27,0,.41,0s.27,0,.41,0c3.48-.01,6.69-1.75,8.82-4.51,3.86-4.98,9.55-9.3,16.9-10.48,3.68-.59,7.35-.77,10.8-.68,22.18,.55,40.64-17.28,40.83-39.47,0-.2,0-.41,0-.61,0-40.79-34.8-73.87-77.76-73.94Z" style="fill: rgb(0, 255, 136); transform-origin: 393.42px 179.455px;" id="elvmad9lu1edn" class="animable"></path><g id="elmd662gcxwce"><path d="M393.42,114.61c-42.96,.07-77.76,33.15-77.76,73.94,0,.2,0,.41,0,.61,.19,22.19,18.65,40.02,40.83,39.47,3.45-.09,7.12,.09,10.8,.68,7.35,1.19,13.04,5.5,16.9,10.48,2.13,2.75,5.34,4.49,8.82,4.51,.14,0,.27,0,.41,0s.27,0,.41,0c3.48-.01,6.69-1.75,8.82-4.51,3.86-4.98,9.55-9.3,16.9-10.48,3.68-.59,7.35-.77,10.8-.68,22.18,.55,40.64-17.28,40.83-39.47,0-.2,0-.41,0-.61,0-40.79-34.8-73.87-77.76-73.94Z" style="fill: rgb(255, 255, 255); opacity: 0.3; transform-origin: 393.42px 179.455px;" class="animable"></path></g><g id="el6pzm6o4ry67" class="animable" style="transform-origin: 392.635px 169.978px;"><path d="M379.96,179.57s-1.54-4.39-4.83-5.93-5.49-1.98-5.49-1.98c0,0,1.76,9.01,10.32,7.91Z" style="fill: rgb(255, 255, 255); transform-origin: 374.8px 175.662px;" id="elxfl8ztnja7f" class="animable"></path><path d="M383.94,167.89s-.25-4.65-2.99-7.04c-2.74-2.39-4.72-3.43-4.72-3.43,0,0-.82,9.14,7.71,10.47Z" style="fill: rgb(255, 255, 255); transform-origin: 380.074px 162.655px;" id="elq5lu2i43hr" class="animable"></path><path d="M420.55,203.48s-2.95-3.6-6.57-3.92c-3.62-.32-5.84,.02-5.84,.02,0,0,4.73,7.86,12.41,3.9Z" style="fill: rgb(255, 255, 255); transform-origin: 414.345px 202.009px;" id="ele3vptkwlie" class="animable"></path><path d="M436.12,212.11s-2.95-3.6-6.57-3.92-5.84,.02-5.84,.02c0,0,4.73,7.86,12.41,3.9Z" style="fill: rgb(255, 255, 255); transform-origin: 429.915px 210.639px;" id="eln72dj8pq77o" class="animable"></path><path d="M363.02,202.38s2.95-3.6,6.57-3.92c3.62-.32,5.84,.02,5.84,.02,0,0-4.73,7.86-12.41,3.9Z" style="fill: rgb(255, 255, 255); transform-origin: 369.225px 200.909px;" id="el2q42dod8lwa" class="animable"></path><path d="M341.3,208.95s2.95-3.6,6.57-3.92c3.62-.32,5.84,.02,5.84,.02,0,0-4.73,7.86-12.41,3.9Z" style="fill: rgb(255, 255, 255); transform-origin: 347.505px 207.479px;" id="el3pb8nfjzmjl" class="animable"></path><path d="M370.98,163.94s-.25-4.65-2.99-7.04c-2.74-2.39-4.72-3.43-4.72-3.43,0,0-.82,9.14,7.71,10.47Z" style="fill: rgb(255, 255, 255); transform-origin: 367.114px 158.705px;" id="eltncs4yj0wcp" class="animable"></path><path d="M358.28,148.43s-.25-4.65-2.99-7.04c-2.74-2.39-4.72-3.43-4.72-3.43,0,0-.82,9.14,7.71,10.47Z" style="fill: rgb(255, 255, 255); transform-origin: 354.414px 143.195px;" id="el0ygax6t2j8v" class="animable"></path><path d="M414.03,166.57s.25-4.65,2.99-7.04c2.74-2.39,4.72-3.43,4.72-3.43,0,0,.82,9.14-7.71,10.47Z" style="fill: rgb(255, 255, 255); transform-origin: 417.896px 161.335px;" id="eliklak7y56if" class="animable"></path><path d="M429.69,157.99s.25-4.65,2.99-7.04,4.72-3.43,4.72-3.43c0,0,.82,9.14-7.71,10.47Z" style="fill: rgb(255, 255, 255); transform-origin: 433.556px 152.755px;" id="el77ipopdl9v5" class="animable"></path><path d="M392.6,160.59s2.68-3.8,2.02-7.38c-.66-3.58-1.58-5.62-1.58-5.62,0,0-6.31,6.66-.44,13Z" style="fill: rgb(255, 255, 255); transform-origin: 392.413px 154.09px;" id="elhigmiu30a4e" class="animable"></path><path d="M395.59,178.09s.44-4.63-1.92-7.41c-2.35-2.77-4.17-4.09-4.17-4.09,0,0-2.16,8.92,6.08,11.5Z" style="fill: rgb(255, 255, 255); transform-origin: 392.433px 172.34px;" id="elg01auuh6uzl" class="animable"></path><path d="M384.53,156.92s1.39-4.44-.34-7.64c-1.72-3.2-3.22-4.87-3.22-4.87,0,0-3.97,8.27,3.56,12.51Z" style="fill: rgb(255, 255, 255); transform-origin: 382.491px 150.665px;" id="el0sjcir4d6h69" class="animable"></path><path d="M384.53,139.24s1.39-4.44-.34-7.64c-1.72-3.2-3.22-4.87-3.22-4.87,0,0-3.97,8.27,3.56,12.51Z" style="fill: rgb(255, 255, 255); transform-origin: 382.491px 132.985px;" id="el61tdnumvi2" class="animable"></path><path d="M388.05,191.41s1.39-4.44-.34-7.64c-1.72-3.2-3.22-4.87-3.22-4.87,0,0-3.97,8.27,3.56,12.51Z" style="fill: rgb(255, 255, 255); transform-origin: 386.011px 185.155px;" id="elxeposjuobu" class="animable"></path><path d="M398.46,186.19s3.93-2.49,4.68-6.05c.75-3.56,.68-5.8,.68-5.8,0,0-8.38,3.75-5.37,11.85Z" style="fill: rgb(255, 255, 255); transform-origin: 400.81px 180.265px;" id="eloj4zzoiazgp" class="animable"></path><path d="M398.93,156.92s-1.39-4.44,.34-7.64c1.73-3.2,3.22-4.87,3.22-4.87,0,0,3.97,8.27-3.56,12.51Z" style="fill: rgb(255, 255, 255); transform-origin: 400.969px 150.665px;" id="elbz2kbrm8kpp" class="animable"></path><path d="M413.56,141.95s-1.39-4.44,.34-7.64c1.72-3.2,3.22-4.87,3.22-4.87,0,0,3.97,8.27-3.56,12.51Z" style="fill: rgb(255, 255, 255); transform-origin: 415.599px 135.695px;" id="elr2120gavwnn" class="animable"></path><path d="M404.41,168.09s3.92-2.51,4.66-6.07c.74-3.56,.66-5.8,.66-5.8,0,0-8.36,3.78-5.32,11.87Z" style="fill: rgb(255, 255, 255); transform-origin: 406.738px 162.155px;" id="elo2vcz8q1eyr" class="animable"></path><path d="M414.98,180.26s4.51-1.17,6.31-4.32c1.81-3.16,2.43-5.31,2.43-5.31,0,0-9.12,1-8.74,9.63Z" style="fill: rgb(255, 255, 255); transform-origin: 419.344px 175.445px;" id="el34p718iwnkt" class="animable"></path><path d="M416,191.12s4.23,1.95,7.62,.65c3.4-1.3,5.24-2.57,5.24-2.57,0,0-7.7-5-12.86,1.92Z" style="fill: rgb(255, 255, 255); transform-origin: 422.43px 189.835px;" id="elbb1h62lmb2c" class="animable"></path><path d="M421.93,181.24s4.23,1.95,7.62,.65c3.4-1.3,5.24-2.57,5.24-2.57,0,0-7.7-5-12.86,1.92Z" style="fill: rgb(255, 255, 255); transform-origin: 428.36px 179.955px;" id="elm6ir6xb8c" class="animable"></path><path d="M440.62,182.16s4.23,1.95,7.62,.65c3.4-1.3,5.24-2.57,5.24-2.57,0,0-7.7-5-12.86,1.92Z" style="fill: rgb(255, 255, 255); transform-origin: 447.05px 180.875px;" id="eld8y2hc5e5z" class="animable"></path><path d="M362.75,187.55s2.84,3.69,6.45,4.11c3.61,.43,5.83,.15,5.83,.15,0,0-4.5-8-12.29-4.27Z" style="fill: rgb(255, 255, 255); transform-origin: 368.885px 189.224px;" id="elj4u4juodlts" class="animable"></path><path d="M353.53,174.81s2.84,3.69,6.45,4.11c3.61,.43,5.83,.15,5.83,.15,0,0-4.5-8-12.29-4.27Z" style="fill: rgb(255, 255, 255); transform-origin: 359.665px 176.484px;" id="el413n21gg0ml" class="animable"></path><path d="M331.8,172.29s2.84,3.69,6.45,4.11c3.61,.43,5.83,.15,5.83,.15,0,0-4.5-8-12.29-4.27Z" style="fill: rgb(255, 255, 255); transform-origin: 337.935px 173.964px;" id="el4v3fvucbtx" class="animable"></path></g><polygon points="420.32 205.48 403.12 209.2 423.65 183.62 395.62 209.75 395.44 211.56 394.19 184.1 392.21 227.48 364.57 201.71 385.1 227.29 367.9 223.57 389.64 232.95 391.84 235.68 388.01 379.23 400.37 379.23 395.75 218.37 398.58 214.86 420.32 205.48" style="fill: rgb(163, 163, 163); transform-origin: 394.11px 281.425px;" id="elwddvugl5tx9" class="animable"></polygon></g><g id="elzi7nfzdvrs" class="animable" style="transform-origin: 259.79px 273.645px;"><path d="M259.79,170.42c-42.96,.07-77.76,33.15-77.76,73.94,0,.2,0,.41,0,.61,.19,22.19,18.65,40.02,40.83,39.47,3.45-.09,7.12,.09,10.8,.68,7.35,1.19,13.04,5.5,16.9,10.48,2.13,2.75,5.34,4.49,8.82,4.51,.14,0,.27,0,.41,0s.27,0,.41,0c3.48-.01,6.69-1.75,8.82-4.51,3.86-4.98,9.55-9.3,16.9-10.48,3.68-.59,7.35-.77,10.8-.68,22.19,.55,40.64-17.28,40.83-39.47,0-.2,0-.41,0-.61,0-40.79-34.8-73.87-77.76-73.94Z" style="fill: rgb(0, 255, 136); transform-origin: 259.79px 235.265px;" id="elg1wf7r2d5we" class="animable"></path><g id="elohg7v6xn6w"><path d="M259.79,170.42c-42.96,.07-77.76,33.15-77.76,73.94,0,.2,0,.41,0,.61,.19,22.19,18.65,40.02,40.83,39.47,3.45-.09,7.12,.09,10.8,.68,7.35,1.19,13.04,5.5,16.9,10.48,2.13,2.75,5.34,4.49,8.82,4.51,.14,0,.27,0,.41,0s.27,0,.41,0c3.48-.01,6.69-1.75,8.82-4.51,3.86-4.98,9.55-9.3,16.9-10.48,3.68-.59,7.35-.77,10.8-.68,22.19,.55,40.64-17.28,40.83-39.47,0-.2,0-.41,0-.61,0-40.79-34.8-73.87-77.76-73.94Z" style="fill: rgb(255, 255, 255); opacity: 0.5; transform-origin: 259.79px 235.265px;" class="animable"></path></g><g id="el3fjpy2yx9ft" class="animable" style="transform-origin: 259.005px 225.788px;"><path d="M246.32,235.38s-1.54-4.39-4.83-5.93c-3.29-1.54-5.49-1.98-5.49-1.98,0,0,1.76,9.01,10.32,7.91Z" style="fill: rgb(255, 255, 255); transform-origin: 241.16px 231.472px;" id="el052iyd4g770u" class="animable"></path><path d="M250.3,223.7s-.25-4.65-2.99-7.04c-2.74-2.39-4.72-3.43-4.72-3.43,0,0-.82,9.14,7.71,10.47Z" style="fill: rgb(255, 255, 255); transform-origin: 246.434px 218.465px;" id="elvzk29c4wgs" class="animable"></path><path d="M286.91,259.29s-2.95-3.6-6.57-3.92c-3.62-.32-5.84,.02-5.84,.02,0,0,4.73,7.86,12.41,3.9Z" style="fill: rgb(255, 255, 255); transform-origin: 280.705px 257.819px;" id="elblzk4f3sq2d" class="animable"></path><path d="M302.49,267.92s-2.95-3.6-6.57-3.92-5.84,.02-5.84,.02c0,0,4.73,7.86,12.41,3.9Z" style="fill: rgb(255, 255, 255); transform-origin: 296.285px 266.449px;" id="elb8bllvu5gf" class="animable"></path><path d="M229.39,258.19s2.95-3.6,6.57-3.92c3.62-.32,5.84,.02,5.84,.02,0,0-4.73,7.86-12.41,3.9Z" style="fill: rgb(255, 255, 255); transform-origin: 235.595px 256.719px;" id="el78n6truz3p" class="animable"></path><path d="M207.66,264.76s2.95-3.6,6.57-3.92c3.62-.32,5.84,.02,5.84,.02,0,0-4.73,7.86-12.41,3.9Z" style="fill: rgb(255, 255, 255); transform-origin: 213.865px 263.289px;" id="elch748eaue65" class="animable"></path><path d="M237.34,219.75s-.25-4.65-2.99-7.04c-2.74-2.39-4.72-3.43-4.72-3.43,0,0-.82,9.14,7.71,10.47Z" style="fill: rgb(255, 255, 255); transform-origin: 233.474px 214.515px;" id="elmhrj8w6o5q" class="animable"></path><path d="M224.64,204.24s-.25-4.65-2.99-7.04c-2.74-2.39-4.72-3.43-4.72-3.43,0,0-.82,9.14,7.71,10.47Z" style="fill: rgb(255, 255, 255); transform-origin: 220.774px 199.005px;" id="elnzkoli1314" class="animable"></path><path d="M280.4,222.39s.25-4.65,2.99-7.04c2.74-2.39,4.72-3.43,4.72-3.43,0,0,.82,9.14-7.71,10.47Z" style="fill: rgb(255, 255, 255); transform-origin: 284.266px 217.155px;" id="elsd6zi7mqpzg" class="animable"></path><path d="M296.06,213.8s.25-4.65,2.99-7.04,4.72-3.43,4.72-3.43c0,0,.82,9.14-7.71,10.47Z" style="fill: rgb(255, 255, 255); transform-origin: 299.926px 208.565px;" id="elf7a8lcljtt" class="animable"></path><path d="M258.96,216.41s2.68-3.8,2.02-7.38c-.66-3.58-1.58-5.62-1.58-5.62,0,0-6.31,6.66-.44,13Z" style="fill: rgb(255, 255, 255); transform-origin: 258.773px 209.91px;" id="eldx03vwbpiit" class="animable"></path><path d="M261.95,233.91s.44-4.63-1.92-7.41c-2.35-2.77-4.17-4.09-4.17-4.09,0,0-2.16,8.92,6.08,11.5Z" style="fill: rgb(255, 255, 255); transform-origin: 258.793px 228.16px;" id="el05h5f12isnor" class="animable"></path><path d="M250.89,212.74s1.39-4.44-.34-7.64c-1.72-3.2-3.22-4.87-3.22-4.87,0,0-3.97,8.27,3.56,12.51Z" style="fill: rgb(255, 255, 255); transform-origin: 248.851px 206.485px;" id="ellb1heaae6q" class="animable"></path><path d="M250.89,195.05s1.39-4.44-.34-7.64c-1.72-3.2-3.22-4.87-3.22-4.87,0,0-3.97,8.27,3.56,12.51Z" style="fill: rgb(255, 255, 255); transform-origin: 248.851px 188.795px;" id="eluqia2mwfx3" class="animable"></path><path d="M254.41,247.22s1.39-4.44-.34-7.64c-1.72-3.2-3.22-4.87-3.22-4.87,0,0-3.97,8.27,3.56,12.51Z" style="fill: rgb(255, 255, 255); transform-origin: 252.371px 240.965px;" id="elxhvie0xqbkc" class="animable"></path><path d="M264.82,242.01s3.93-2.49,4.68-6.05c.75-3.56,.68-5.8,.68-5.8,0,0-8.38,3.75-5.37,11.85Z" style="fill: rgb(255, 255, 255); transform-origin: 267.17px 236.085px;" id="elg2tgj3nqdsb" class="animable"></path><path d="M265.29,212.74s-1.39-4.44,.34-7.64c1.73-3.2,3.22-4.87,3.22-4.87,0,0,3.97,8.27-3.56,12.51Z" style="fill: rgb(255, 255, 255); transform-origin: 267.329px 206.485px;" id="el6hmx1w36vmj" class="animable"></path><path d="M279.92,197.77s-1.39-4.44,.34-7.64c1.72-3.2,3.22-4.87,3.22-4.87,0,0,3.97,8.27-3.56,12.51Z" style="fill: rgb(255, 255, 255); transform-origin: 281.959px 191.515px;" id="el7scyw6vr4x7" class="animable"></path><path d="M270.77,223.9s3.92-2.51,4.66-6.07c.74-3.56,.66-5.8,.66-5.8,0,0-8.36,3.78-5.32,11.87Z" style="fill: rgb(255, 255, 255); transform-origin: 273.098px 217.965px;" id="eleozf4aiqq1" class="animable"></path><path d="M281.35,236.07s4.51-1.17,6.31-4.32c1.81-3.16,2.43-5.31,2.43-5.31,0,0-9.12,1-8.74,9.63Z" style="fill: rgb(255, 255, 255); transform-origin: 285.714px 231.255px;" id="elcn3hmt3s2i" class="animable"></path><path d="M282.36,246.94s4.23,1.95,7.62,.65c3.4-1.3,5.24-2.57,5.24-2.57,0,0-7.7-5-12.86,1.92Z" style="fill: rgb(255, 255, 255); transform-origin: 288.79px 245.655px;" id="elfwxlbmteut" class="animable"></path><path d="M288.29,237.05s4.23,1.95,7.62,.65c3.4-1.3,5.24-2.57,5.24-2.57,0,0-7.7-5-12.86,1.92Z" style="fill: rgb(255, 255, 255); transform-origin: 294.72px 235.765px;" id="el83whw99ox63" class="animable"></path><path d="M306.99,237.97s4.23,1.95,7.62,.65c3.4-1.3,5.24-2.57,5.24-2.57,0,0-7.7-5-12.86,1.92Z" style="fill: rgb(255, 255, 255); transform-origin: 313.42px 236.685px;" id="elh04ztgok1cu" class="animable"></path><path d="M229.12,243.37s2.84,3.69,6.45,4.11c3.61,.43,5.83,.15,5.83,.15,0,0-4.5-8-12.29-4.27Z" style="fill: rgb(255, 255, 255); transform-origin: 235.255px 245.044px;" id="elku2frfkioma" class="animable"></path><path d="M219.89,230.62s2.84,3.69,6.45,4.11c3.61,.43,5.83,.15,5.83,.15,0,0-4.5-8-12.29-4.27Z" style="fill: rgb(255, 255, 255); transform-origin: 226.025px 232.294px;" id="elixcru70r0ae" class="animable"></path><path d="M198.17,228.1s2.84,3.69,6.45,4.11c3.61,.43,5.83,.15,5.83,.15,0,0-4.5-8-12.29-4.27Z" style="fill: rgb(255, 255, 255); transform-origin: 204.305px 229.774px;" id="elzpahj7t4tbq" class="animable"></path></g><polygon points="234.26 279.38 256.01 288.76 258.2 291.5 255.93 376.87 265.06 376.87 262.12 274.19 264.94 270.67 286.69 261.29 269.49 265.01 290.01 239.43 261.98 265.56 261.81 267.37 260.55 239.91 258.58 283.29 230.94 257.53 251.46 283.1 234.26 279.38" style="fill: rgb(163, 163, 163); transform-origin: 260.475px 308.15px;" id="el4mchtqcqjl" class="animable"></polygon></g><g id="eld6emr4xcvfc" class="animable" style="transform-origin: 361.44px 192.31px;"><path d="M361.44,5.39c-60.69,.1-109.85,46.82-109.85,104.46,0,.29,0,.58,0,.86,.27,31.35,26.34,56.54,57.68,55.75,4.87-.12,10.06,.13,15.25,.97,10.39,1.68,18.43,7.77,23.88,14.81,3.01,3.89,7.54,6.35,12.46,6.37,.19,0,.39,0,.58,0s.39,0,.58,0c4.92-.02,9.45-2.47,12.46-6.37,5.45-7.04,13.49-13.13,23.88-14.81,5.19-.84,10.38-1.09,15.25-.97,31.34,.78,57.41-24.4,57.68-55.75,0-.29,0-.58,0-.86,0-57.63-49.17-104.36-109.85-104.46Z" style="fill: rgb(0, 255, 136); transform-origin: 361.44px 97px;" id="elil11j79k8ra" class="animable"></path><g id="ellz2kdw4o6u"><path d="M361.44,5.39c-60.69,.1-109.85,46.82-109.85,104.46,0,.29,0,.58,0,.86,.27,31.35,26.34,56.54,57.68,55.75,4.87-.12,10.06,.13,15.25,.97,10.39,1.68,18.43,7.77,23.88,14.81,3.01,3.89,7.54,6.35,12.46,6.37,.19,0,.39,0,.58,0s.39,0,.58,0c4.92-.02,9.45-2.47,12.46-6.37,5.45-7.04,13.49-13.13,23.88-14.81,5.19-.84,10.38-1.09,15.25-.97,31.34,.78,57.41-24.4,57.68-55.75,0-.29,0-.58,0-.86,0-57.63-49.17-104.36-109.85-104.46Z" style="fill: rgb(255, 255, 255); opacity: 0.3; transform-origin: 361.44px 97px;" class="animable"></path></g><g id="el0h3r810n4fo8" class="animable" style="transform-origin: 360.33px 83.6187px;"><path d="M342.41,97.17s-2.17-6.21-6.83-8.38c-4.65-2.17-7.76-2.79-7.76-2.79,0,0,2.48,12.72,14.59,11.17Z" style="fill: rgb(255, 255, 255); transform-origin: 335.115px 91.6505px;" id="eliwqzho4izk" class="animable"></path><path d="M348.03,80.67s-.36-6.57-4.22-9.95c-3.87-3.38-6.67-4.84-6.67-4.84,0,0-1.16,12.91,10.9,14.79Z" style="fill: rgb(255, 255, 255); transform-origin: 342.575px 73.275px;" id="elmd7zu3ycfi" class="animable"></path><path d="M399.76,130.95s-4.16-5.09-9.28-5.54c-5.12-.45-8.25,.03-8.25,.03,0,0,6.69,11.11,17.53,5.51Z" style="fill: rgb(255, 255, 255); transform-origin: 390.995px 128.872px;" id="ellp0abnxkeb" class="animable"></path><path d="M421.76,143.14s-4.16-5.09-9.28-5.54c-5.12-.45-8.25,.03-8.25,.03,0,0,6.69,11.11,17.53,5.51Z" style="fill: rgb(255, 255, 255); transform-origin: 412.995px 141.062px;" id="elk3k3ye0wygb" class="animable"></path><path d="M318.49,129.39s4.16-5.09,9.28-5.54c5.12-.45,8.25,.03,8.25,.03,0,0-6.69,11.11-17.53,5.51Z" style="fill: rgb(255, 255, 255); transform-origin: 327.255px 127.312px;" id="el1h7klp0np13" class="animable"></path><path d="M287.8,138.67s4.16-5.09,9.28-5.54c5.12-.45,8.25,.03,8.25,.03,0,0-6.69,11.11-17.53,5.51Z" style="fill: rgb(255, 255, 255); transform-origin: 296.565px 136.592px;" id="eldyo9cpu7i8l" class="animable"></path><path d="M329.72,75.08s-.36-6.57-4.22-9.95c-3.87-3.38-6.67-4.84-6.67-4.84,0,0-1.16,12.91,10.9,14.79Z" style="fill: rgb(255, 255, 255); transform-origin: 324.265px 67.685px;" id="elye73mpsij2" class="animable"></path><path d="M311.79,53.17s-.36-6.57-4.22-9.95c-3.87-3.38-6.67-4.84-6.67-4.84,0,0-1.16,12.91,10.9,14.79Z" style="fill: rgb(255, 255, 255); transform-origin: 306.335px 45.775px;" id="el5c6s2o6v1iu" class="animable"></path><path d="M390.55,78.81s.36-6.57,4.22-9.95,6.67-4.84,6.67-4.84c0,0,1.16,12.91-10.9,14.79Z" style="fill: rgb(255, 255, 255); transform-origin: 396.005px 71.415px;" id="elfzvlp1m776d" class="animable"></path><path d="M412.67,66.68s.36-6.57,4.22-9.95c3.87-3.38,6.67-4.84,6.67-4.84,0,0,1.16,12.91-10.9,14.79Z" style="fill: rgb(255, 255, 255); transform-origin: 418.125px 59.285px;" id="elq4tast2z298" class="animable"></path><path d="M360.27,70.36s3.79-5.37,2.86-10.42c-.93-5.05-2.23-7.94-2.23-7.94,0,0-8.92,9.41-.63,18.36Z" style="fill: rgb(255, 255, 255); transform-origin: 360.009px 61.18px;" id="eltwj17qnq7yk" class="animable"></path><path d="M364.49,95.08s.62-6.55-2.71-10.46c-3.32-3.92-5.88-5.78-5.88-5.78,0,0-3.05,12.6,8.59,16.24Z" style="fill: rgb(255, 255, 255); transform-origin: 360.038px 86.96px;" id="elew1syodw15q" class="animable"></path><path d="M348.87,65.17s1.96-6.28-.47-10.8c-2.44-4.52-4.56-6.87-4.56-6.87,0,0-5.61,11.69,5.03,17.67Z" style="fill: rgb(255, 255, 255); transform-origin: 345.99px 56.335px;" id="elxl4fh3blx4" class="animable"></path><path d="M348.87,40.19s1.96-6.28-.47-10.8c-2.44-4.52-4.56-6.87-4.56-6.87,0,0-5.61,11.69,5.03,17.67Z" style="fill: rgb(255, 255, 255); transform-origin: 345.99px 31.355px;" id="elddyiv122p0d" class="animable"></path><path d="M353.84,113.9s1.96-6.28-.47-10.8c-2.44-4.52-4.56-6.87-4.56-6.87,0,0-5.61,11.69,5.03,17.67Z" style="fill: rgb(255, 255, 255); transform-origin: 350.96px 105.065px;" id="el7juqa29rmbu" class="animable"></path><path d="M368.55,106.53s5.55-3.52,6.62-8.55c1.06-5.03,.97-8.19,.97-8.19,0,0-11.83,5.3-7.58,16.73Z" style="fill: rgb(255, 255, 255); transform-origin: 371.89px 98.16px;" id="el2rwqxofpcd9" class="animable"></path><path d="M369.21,65.17s-1.96-6.28,.47-10.8,4.56-6.87,4.56-6.87c0,0,5.61,11.69-5.03,17.67Z" style="fill: rgb(255, 255, 255); transform-origin: 372.09px 56.335px;" id="el4fibeixu55p" class="animable"></path><path d="M389.88,44.03s-1.96-6.28,.47-10.8c2.44-4.52,4.56-6.87,4.56-6.87,0,0,5.61,11.69-5.03,17.67Z" style="fill: rgb(255, 255, 255); transform-origin: 392.76px 35.195px;" id="eltm8iq05z2fc" class="animable"></path><path d="M376.95,80.95s5.54-3.54,6.58-8.57c1.04-5.03,.93-8.19,.93-8.19,0,0-11.81,5.34-7.52,16.76Z" style="fill: rgb(255, 255, 255); transform-origin: 380.232px 72.57px;" id="ellblphxf2xe" class="animable"></path><path d="M391.89,98.14s6.37-1.65,8.92-6.11c2.55-4.46,3.43-7.5,3.43-7.5,0,0-12.89,1.42-12.34,13.61Z" style="fill: rgb(255, 255, 255); transform-origin: 398.061px 91.335px;" id="elnsjj0ltjktp" class="animable"></path><path d="M393.32,113.49s5.97,2.75,10.77,.92c4.8-1.84,7.4-3.63,7.4-3.63,0,0-10.87-7.06-18.17,2.72Z" style="fill: rgb(255, 255, 255); transform-origin: 402.405px 111.677px;" id="elspk6kom2t9e" class="animable"></path><path d="M401.7,99.53s5.97,2.75,10.77,.92c4.8-1.84,7.4-3.63,7.4-3.63,0,0-10.87-7.06-18.17,2.72Z" style="fill: rgb(255, 255, 255); transform-origin: 410.785px 97.717px;" id="eldwcldqm9vfw" class="animable"></path><path d="M428.12,100.83s5.97,2.75,10.77,.92c4.8-1.84,7.4-3.63,7.4-3.63,0,0-10.87-7.06-18.17,2.72Z" style="fill: rgb(255, 255, 255); transform-origin: 437.205px 99.017px;" id="eli3dx6pwxyw" class="animable"></path><path d="M318.11,108.45s4.01,5.21,9.11,5.81c5.1,.6,8.24,.22,8.24,.22,0,0-6.35-11.3-17.36-6.03Z" style="fill: rgb(255, 255, 255); transform-origin: 326.78px 110.824px;" id="elrs2xofpxus" class="animable"></path><path d="M305.07,90.45s4.01,5.21,9.11,5.81c5.1,.6,8.24,.22,8.24,.22,0,0-6.35-11.3-17.36-6.03Z" style="fill: rgb(255, 255, 255); transform-origin: 313.74px 92.8241px;" id="eln17v9th8q7k" class="animable"></path><path d="M274.38,86.88s4.01,5.21,9.11,5.81c5.1,.6,8.24,.22,8.24,.22,0,0-6.35-11.3-17.36-6.03Z" style="fill: rgb(255, 255, 255); transform-origin: 283.05px 89.2541px;" id="el9ufvx72ebd" class="animable"></path></g><polygon points="399.44 133.77 375.14 139.02 404.13 102.89 364.53 139.81 364.29 142.36 362.52 103.56 359.72 164.85 320.68 128.45 349.67 164.58 325.37 159.33 356.09 172.58 359.19 176.44 353.79 379.23 371.24 379.23 364.73 151.99 368.72 147.02 399.44 133.77" style="fill: rgb(163, 163, 163); transform-origin: 362.405px 241.06px;" id="el73qaz67hwjb" class="animable"></polygon></g><g id="elsudc5s72bsp" class="animable" style="transform-origin: 192.03px 217.515px;"><path d="M192.02,55.8c-52.51,.09-95.04,40.51-95.04,90.37,0,.25,0,.5,0,.75,.23,27.12,22.79,48.91,49.91,48.24,4.21-.1,8.7,.11,13.2,.84,8.99,1.45,15.94,6.72,20.66,12.81,2.61,3.37,6.52,5.49,10.78,5.51,.17,0,.33,0,.5,0s.33,0,.5,0c4.26-.02,8.17-2.14,10.78-5.51,4.72-6.09,11.67-11.36,20.66-12.81,4.49-.72,8.98-.94,13.2-.84,27.12,.68,49.67-21.11,49.91-48.24,0-.25,0-.5,0-.75,0-49.86-42.54-90.29-95.04-90.37Z" style="fill: rgb(0, 255, 136); transform-origin: 192.03px 135.06px;" id="el8s6dx0f6ixr" class="animable"></path><g id="eluttq3fetg5"><path d="M192.02,55.8c-52.51,.09-95.04,40.51-95.04,90.37,0,.25,0,.5,0,.75,.23,27.12,22.79,48.91,49.91,48.24,4.21-.1,8.7,.11,13.2,.84,8.99,1.45,15.94,6.72,20.66,12.81,2.61,3.37,6.52,5.49,10.78,5.51,.17,0,.33,0,.5,0s.33,0,.5,0c4.26-.02,8.17-2.14,10.78-5.51,4.72-6.09,11.67-11.36,20.66-12.81,4.49-.72,8.98-.94,13.2-.84,27.12,.68,49.67-21.11,49.91-48.24,0-.25,0-.5,0-.75,0-49.86-42.54-90.29-95.04-90.37Z" style="fill: rgb(255, 255, 255); opacity: 0.3; transform-origin: 192.03px 135.06px;" class="animable"></path></g><g id="el2p0glk4txgs" class="animable" style="transform-origin: 191.06px 123.481px;"><path d="M175.56,135.2s-1.88-5.37-5.91-7.25-6.71-2.42-6.71-2.42c0,0,2.15,11.01,12.62,9.67Z" style="fill: rgb(255, 255, 255); transform-origin: 169.25px 130.422px;" id="elea7kyzho0ad" class="animable"></path><path d="M180.42,120.93s-.31-5.68-3.65-8.61c-3.34-2.93-5.77-4.19-5.77-4.19,0,0-1,11.17,9.43,12.8Z" style="fill: rgb(255, 255, 255); transform-origin: 175.702px 114.53px;" id="el451xrdib6f3" class="animable"></path><path d="M225.17,164.43s-3.6-4.4-8.03-4.79c-4.43-.39-7.13,.03-7.13,.03,0,0,5.78,9.61,15.16,4.77Z" style="fill: rgb(255, 255, 255); transform-origin: 217.59px 162.638px;" id="ela8ib3hs8hrg" class="animable"></path><path d="M244.21,174.97s-3.6-4.4-8.03-4.79c-4.43-.39-7.13,.03-7.13,.03,0,0,5.78,9.61,15.16,4.77Z" style="fill: rgb(255, 255, 255); transform-origin: 236.63px 173.178px;" id="elg56gr9s9zsf" class="animable"></path><path d="M154.86,163.08s3.6-4.4,8.03-4.79c4.43-.39,7.13,.03,7.13,.03,0,0-5.78,9.61-15.16,4.77Z" style="fill: rgb(255, 255, 255); transform-origin: 162.44px 161.288px;" id="elsnsx06j60fk" class="animable"></path><path d="M128.31,171.11s3.6-4.4,8.03-4.79c4.43-.39,7.13,.03,7.13,.03,0,0-5.78,9.61-15.16,4.77Z" style="fill: rgb(255, 255, 255); transform-origin: 135.89px 169.318px;" id="elmflzxrvuajk" class="animable"></path><path d="M164.58,116.09s-.31-5.68-3.65-8.61c-3.34-2.93-5.77-4.19-5.77-4.19,0,0-1,11.17,9.43,12.8Z" style="fill: rgb(255, 255, 255); transform-origin: 159.862px 109.69px;" id="el850al0ykq0e" class="animable"></path><path d="M149.06,97.13s-.31-5.68-3.65-8.61c-3.34-2.93-5.77-4.19-5.77-4.19,0,0-1,11.17,9.43,12.8Z" style="fill: rgb(255, 255, 255); transform-origin: 144.342px 90.73px;" id="ely333qd6ul1g" class="animable"></path><path d="M217.21,119.32s.31-5.68,3.65-8.61c3.34-2.93,5.77-4.19,5.77-4.19,0,0,1,11.17-9.43,12.8Z" style="fill: rgb(255, 255, 255); transform-origin: 221.928px 112.92px;" id="el8itdoam8vst" class="animable"></path><path d="M236.35,108.82s.31-5.68,3.65-8.61c3.34-2.93,5.77-4.19,5.77-4.19,0,0,1,11.17-9.43,12.8Z" style="fill: rgb(255, 255, 255); transform-origin: 241.068px 102.42px;" id="elhj013a6n16" class="animable"></path><path d="M191.01,112.01s3.28-4.65,2.47-9.02c-.81-4.37-1.93-6.87-1.93-6.87,0,0-7.72,8.14-.54,15.89Z" style="fill: rgb(255, 255, 255); transform-origin: 190.781px 104.065px;" id="elx2pftn2mk7f" class="animable"></path><path d="M194.66,133.39s.53-5.66-2.34-9.05c-2.88-3.39-5.09-5-5.09-5,0,0-2.64,10.9,7.43,14.05Z" style="fill: rgb(255, 255, 255); transform-origin: 190.808px 126.365px;" id="eltkz2k2ktbs" class="animable"></path><path d="M181.15,107.52s1.7-5.43-.41-9.34c-2.11-3.91-3.94-5.95-3.94-5.95,0,0-4.85,10.11,4.35,15.29Z" style="fill: rgb(255, 255, 255); transform-origin: 178.66px 99.875px;" id="el7pw80oyv4fb" class="animable"></path><path d="M181.15,85.91s1.7-5.43-.41-9.34c-2.11-3.91-3.94-5.95-3.94-5.95,0,0-4.85,10.11,4.35,15.29Z" style="fill: rgb(255, 255, 255); transform-origin: 178.66px 78.265px;" id="el2kam3ox4tvd" class="animable"></path><path d="M185.44,149.67s1.7-5.43-.41-9.34c-2.11-3.91-3.94-5.95-3.94-5.95,0,0-4.85,10.11,4.35,15.29Z" style="fill: rgb(255, 255, 255); transform-origin: 182.95px 142.025px;" id="eljopi2qi0zst" class="animable"></path><path d="M198.17,143.3s4.81-3.05,5.73-7.39c.92-4.35,.84-7.08,.84-7.08,0,0-10.24,4.58-6.56,14.48Z" style="fill: rgb(255, 255, 255); transform-origin: 201.062px 136.07px;" id="eld5rz34gtink" class="animable"></path><path d="M198.74,107.52s-1.7-5.43,.41-9.34,3.94-5.95,3.94-5.95c0,0,4.85,10.11-4.35,15.29Z" style="fill: rgb(255, 255, 255); transform-origin: 201.23px 99.875px;" id="ellxyayda4uee" class="animable"></path><path d="M216.63,89.22s-1.7-5.43,.41-9.34c2.11-3.91,3.94-5.95,3.94-5.95,0,0,4.85,10.11-4.35,15.29Z" style="fill: rgb(255, 255, 255); transform-origin: 219.12px 81.575px;" id="elt7nefrc1f1e" class="animable"></path><path d="M205.44,121.17s4.79-3.06,5.7-7.42c.9-4.35,.81-7.09,.81-7.09,0,0-10.22,4.62-6.5,14.5Z" style="fill: rgb(255, 255, 255); transform-origin: 208.294px 113.915px;" id="el34ykkl6ke41" class="animable"></path><path d="M218.37,136.04s5.51-1.43,7.71-5.29c2.21-3.86,2.96-6.49,2.96-6.49,0,0-11.15,1.23-10.68,11.77Z" style="fill: rgb(255, 255, 255); transform-origin: 223.693px 130.15px;" id="elqt22byu6geo" class="animable"></path><path d="M219.61,149.32s5.17,2.38,9.32,.79c4.15-1.59,6.4-3.14,6.4-3.14,0,0-9.41-6.11-15.72,2.35Z" style="fill: rgb(255, 255, 255); transform-origin: 227.47px 147.747px;" id="elltyehsa0mg" class="animable"></path><path d="M226.86,137.24s5.17,2.38,9.32,.79,6.4-3.14,6.4-3.14c0,0-9.41-6.11-15.72,2.35Z" style="fill: rgb(255, 255, 255); transform-origin: 234.72px 135.667px;" id="elluuz4i567fr" class="animable"></path><path d="M249.71,138.36s5.17,2.38,9.32,.79c4.15-1.59,6.4-3.14,6.4-3.14,0,0-9.41-6.11-15.72,2.35Z" style="fill: rgb(255, 255, 255); transform-origin: 257.57px 136.787px;" id="elfw34iv2ilaf" class="animable"></path><path d="M154.53,144.96s3.47,4.51,7.88,5.03c4.41,.52,7.13,.19,7.13,.19,0,0-5.5-9.78-15.02-5.21Z" style="fill: rgb(255, 255, 255); transform-origin: 162.03px 147.018px;" id="eltfr143zt8jn" class="animable"></path><path d="M143.26,129.38s3.47,4.51,7.88,5.03c4.41,.52,7.13,.19,7.13,.19,0,0-5.5-9.78-15.02-5.21Z" style="fill: rgb(255, 255, 255); transform-origin: 150.76px 131.438px;" id="el5qxfdoguz5" class="animable"></path><path d="M116.7,126.3s3.47,4.51,7.88,5.03c4.41,.52,7.13,.19,7.13,.19,0,0-5.5-9.78-15.02-5.21Z" style="fill: rgb(255, 255, 255); transform-origin: 124.2px 128.358px;" id="elktbvsw9bju" class="animable"></path></g><polygon points="224.89 166.86 203.87 171.41 228.96 140.15 194.7 172.09 194.49 174.3 192.96 140.73 190.54 193.76 156.75 162.26 181.84 193.52 160.82 188.98 187.4 200.44 190.08 203.78 185.41 379.23 200.5 379.23 194.87 182.63 198.32 178.33 224.89 166.86" style="fill: rgb(163, 163, 163); transform-origin: 192.855px 259.69px;" id="elmf7v5u0fcoh" class="animable"></polygon></g></g><g id="freepik--plants-2--inject-24" class="animable animator-active" style="transform-origin: 245.535px 356.728px;"><path d="M468.61,378.78l-9.11-1.3s-6.51-6.13-5.95-3.53c.56,2.6,1.86,3.72,1.86,3.72,0,0-9.48-4.65-7.99-2.79,1.49,1.86,2.23,2.6,2.23,2.6,0,0-5.02-3.72-5.2-2.42l-.19,1.3h-7.06s2.23-.37,1.12-1.67c-1.12-1.3-3.16,.93-3.16,.93,0,0,3.9-4.83,.93-4.46-2.97,.37-3.9,3.9-3.9,3.9,0,0-.74-6.13-2.6-5.76-1.86,.37-.93,5.95-.93,5.95,0,0-3.16-4.09-3.35-2.6-.19,1.49,.56,2.6,.56,2.6,0,0-3.9-4.46-5.2-3.35-1.3,1.12-.19,3.35-.19,3.35,0,0-6.13-2.79-5.95-1.49,.19,1.3-.35,2.81-.35,2.81h-24.37l-1.05,.21h-12.5s2.33-1.36,2.92-2.53c.58-1.17-3.11-.19-3.11-.19,0,0,2.72-2.14,2.14-3.69-.58-1.56-4.86,4.08-4.86,4.08,0,0-.58-5.06-2.14-4.86-1.56,.19-.39,7-.39,7,0,0-1.17-.39-1.56-1.56-.39-1.17-2.53,1.17-2.53,1.17l-.78-.58c-.78-.58-10.31,.58-10.31,.58,0,0,.97-.78-.19-1.36-1.17-.58-9.33,.97-9.33,.97,0,0,.97-.19,.39-1.75-.39-1.05-2.95-.48-4.59,.01,.24-.22,.23-.55-.29-.95-.51-.42-1.16-.33-1.71-.1-.07-.17-.14-.34-.23-.55,.06-.09,.13-.18,.19-.28,.37-.09,1.05-.04,1.9,.31,1.01,.38,2.2,.02,1.26-.98-.73-.85-2.09-.32-2.64-.01,.34-.42,.7-.81,1.09-1.19,.38-.03,1.04,.15,1.81,.63,.93,.54,2.16,.4,1.4-.75-.58-.96-1.99-.66-2.59-.46,.4-.35,.81-.68,1.25-.99,.37,.03,1,.31,1.69,.93,.82,.69,2.06,.75,1.51-.51-.42-1.06-1.9-.98-2.51-.88,.46-.28,.93-.54,1.42-.77,.36,.09,.94,.47,1.51,1.2,.7,.82,1.92,1.08,1.59-.25-.24-1.11-1.71-1.29-2.33-1.29,.39-.16,.79-.31,1.2-.44,.47,.02,1.85,.12,2.4,.19,.34,.02,1.46,.04,1.69-.59,.1-.25,.04-.56-.15-.79-.27-.32-.74-.45-1.28-.34-.93,.15-2.41,1.01-2.8,1.33-.42,.13-.83,.28-1.23,.45,.42-.37,1.68-1.47,1.47-2.55-.34-1.37-1.94-.25-1.9,.88,0,.97-.12,1.66-.29,2-.52,.25-1.02,.52-1.5,.82,.35-.44,1.4-1.72,1-2.76-.57-1.29-1.93,.07-1.71,1.18,.16,.95,.16,1.66,.05,2.01-.47,.33-.92,.69-1.35,1.07,.26-.47,1.1-1.94,.53-2.9-.77-1.18-1.89,.39-1.48,1.44,.32,.92,.44,1.62,.38,1.99-.41,.4-.79,.83-1.15,1.28,.18-.51,.77-2.1,.04-2.95-.96-1.04-1.8,.7-1.23,1.68,.47,.85,.7,1.52,.71,1.9-.04,.06-.09,.12-.13,.19-.14-.17-.34-.28-.6-.33,.16-.37,.1-.7-.28-.79-.09-.2-.2-.39-.37-.53-.09-.07-.18-.12-.26-.15,.8-.53,1.16-1.45-.09-1.45-1.12-.04-1.65,1.31-1.81,1.92-.07-.53-.12-1.07-.13-1.61,.24-.29,.82-.66,1.69-.89,1.03-.31,1.76-1.31,.4-1.54-1.1-.23-1.84,1.01-2.1,1.58,.02-.53,.05-1.06,.13-1.59,.28-.25,.91-.52,1.83-.61,1.06-.13,1.95-1,.66-1.46-1.05-.41-2.01,.71-2.35,1.23,.1-.53,.24-1.05,.4-1.56,.31-.2,.99-.37,1.91-.3,1.07,.05,2.1-.67,.9-1.34-.97-.58-2.1,.37-2.53,.83,.15-.4,.31-.79,.5-1.17,.33-.33,1.35-1.28,1.78-1.63,.24-.23,1.02-1.04,.72-1.64-.11-.24-.38-.41-.68-.43-.42-.02-.83,.23-1.12,.71-.52,.78-.9,2.46-.93,2.96-.19,.39-.35,.8-.51,1.2,.01-.56,.07-2.23-.87-2.81-1.24-.68-1.5,1.25-.65,1.99,.7,.66,1.13,1.22,1.26,1.57-.17,.55-.31,1.1-.42,1.66-.08-.55-.31-2.2-1.34-2.61-1.33-.47-1.27,1.46-.3,2.05,.81,.53,1.32,1.01,1.51,1.33-.08,.57-.12,1.14-.13,1.72-.17-.52-.67-2.13-1.76-2.36-1.39-.24-1,1.65,.05,2.07,.89,.39,1.49,.78,1.72,1.07,.02,.57,.07,1.15,.15,1.71-.25-.48-1.02-2-2.13-2.04-1.41,0-.71,1.8,.4,2.04,.94,.24,1.59,.52,1.87,.77,.04,.22,.09,.44,.14,.65-.14,.06-.28,.12-.42,.18-.47-.46-1.08-.9-1.72-.82-1.04,.18-.75,1.16-.05,1.66-1.29,.67-2.28,1.29-2.28,1.29,0,0,1.36-1.56,.78-2.92-.58-1.36-2.72,1.75-2.72,1.75l-4.89,.49c.26-.56,.5-1.13,.72-1.7,.64-.36,1.96-.68,3.75-.83,2.17-.11,4.07-3.3,1.41-3.75-2.06-.27-3.96,2.23-4.64,3.14,.34-1.05,.61-2.12,.83-3.2,.56-.46,1.82-.99,3.56-1.44,2.11-.46,3.45-3.9,.75-3.89-2.12,.08-3.59,2.95-4.07,3.9,.16-1.1,.26-2.2,.29-3.31,.47-.54,1.62-1.28,3.28-2.01,2.01-.8,2.75-4.4,.09-3.95-2.07,.44-3.04,3.5-3.37,4.5-.02-1.11-.1-2.21-.25-3.31,.38-.61,1.39-1.52,2.89-2.51,1.85-1.13,1.97-4.81-.57-3.92-1.95,.78-2.4,3.89-2.56,4.98-.2-1.08-.48-2.14-.81-3.2,.27-.67,1.11-1.74,2.42-2.97,1.63-1.42,1.12-5.11-1.24-3.8-1.78,1.1-1.7,4.26-1.67,5.37-.29-.77-.6-1.54-.96-2.28-.07-.97-.8-4.18-1.79-5.67-.56-.9-1.34-1.4-2.15-1.35-.58,.03-1.09,.35-1.31,.81-.57,1.15,.91,2.69,1.37,3.14,.82,.67,2.76,2.47,3.39,3.11,.36,.73,.66,1.48,.95,2.24-.82-.88-2.98-2.69-4.83-1.58-2.29,1.28-.33,2.64,1.72,2.55,1.71-.13,3.01,.16,3.63,.53,.31,.99,.58,2,.78,3.02-.65-.99-2.48-3.13-4.48-2.35-2.47,.87-.78,2.53,1.25,2.78,1.71,.16,2.93,.65,3.48,1.12,.14,1.01,.22,2.03,.25,3.05-.5-1.11-1.93-3.44-4.01-3.01-2.58,.44-1.19,2.35,.77,2.94,1.64,.43,2.76,1.12,3.24,1.68-.03,1.03-.11,2.06-.25,3.09-.3-1.18-1.32-3.74-3.45-3.66-2.39,0-1.72,1.77-.19,2.77-.16,.07-.32,.16-.49,.29-.32,.27-.55,.61-.72,.99-.84,.2-.85,.99-.38,1.81-.05,1.09,.14,2.17,.24,2.74-.54-.97-1.14-1.89-1.78-2.78,.04-.72,.51-2,1.37-3.59,1.1-1.86-.51-5.18-2.34-3.2-1.38,1.61-.28,4.64,.08,5.64-.69-.86-1.44-1.69-2.23-2.46-.08-.71,.17-2.06,.76-3.77,.78-2.02-1.35-5.01-2.83-2.76-1.09,1.82,.49,4.61,1.01,5.53-.83-.74-1.69-1.43-2.6-2.07-.19-.7-.17-2.05,.13-3.83,.43-2.12-2.18-4.72-3.26-2.25-.76,1.95,1.22,4.41,1.91,5.26-.93-.58-1.9-1.11-2.89-1.58-.31-.66-.51-2-.53-3.79,.07-2.16-2.98-4.3-3.63-1.68-.41,2.05,1.97,4.14,2.8,4.88-.76-.31-1.53-.6-2.33-.85-.76-.61-3.61-2.26-5.37-2.55-1.04-.2-1.94,.04-2.45,.65-.37,.44-.48,1.04-.29,1.51,.46,1.2,2.59,1.17,3.24,1.13,1.05-.15,3.68-.34,4.58-.37,.78,.24,1.54,.52,2.29,.83-1.2,0-4,.35-4.44,2.46-.62,2.54,1.71,2.04,3.04,.48,1.07-1.34,2.17-2.1,2.86-2.3,.94,.45,1.86,.94,2.74,1.48-1.17-.19-3.98-.32-4.77,1.69-1.04,2.4,1.32,2.29,2.89,.97,1.27-1.14,2.48-1.71,3.19-1.79,.84,.59,1.64,1.22,2.41,1.9-1.15-.39-3.83-.93-4.94,.89-1.43,2.19,.91,2.47,2.68,1.44,1.44-.91,2.7-1.26,3.43-1.23,.74,.72,1.44,1.49,2.09,2.29-1.07-.58-3.64-1.58-5.03,.03-1.78,1.92,.49,2.59,2.41,1.87,1.58-.66,2.9-.79,3.61-.62,.62,.85,1.2,1.74,1.72,2.66-.93-.75-3.36-2.26-5.02-.88-1.51,1.15-.8,2.03,.48,2.28-.9,.59-1.6,1.13-1.6,1.13,0,0-1.94-1.94-3.31-2.33-1.36-.39-4.08,1.36-4.08,1.36,0,0,1.56-2.33,.78-4.67-.78-2.33-3.5,3.31-3.5,3.31,0,0-.39-3.5-3.31-3.89-2.92-.39,.78,4.08,.78,4.08,0,0-3.11-1.75-6.42-1.75s2.14,2.92,2.14,2.92c0,0-3.9-.32-6.8,.22,.56-.89,1.02-1.98-.23-1.82-2.07,.28-2.35,2.77-2.35,2.77,0,0-1.94-4.01-2.49-2.35-.55,1.66,.55,3.32,.55,3.32,0,0-1.94-1.24-2.9-.97-.97,.28-2.35,1.66-2.35,1.66,0,0-.5-.39-1.14-.81,.9-.18,1.41-.8,.34-1.62-1.18-.98-2.91,.09-3.57,.62,.37-.66,.78-1.29,1.22-1.9,.51-.12,1.44-.02,2.57,.44,1.37,.51,2.98,.03,1.71-1.33-.99-1.15-2.82-.43-3.58-.02,.47-.57,.96-1.11,1.49-1.63,.52-.02,1.42,.23,2.44,.87,1.26,.74,2.93,.54,1.91-1.02-.78-1.29-2.69-.9-3.51-.63,.54-.47,1.1-.92,1.69-1.34,.51,.04,1.36,.43,2.29,1.26,1.12,.94,2.8,1.02,2.06-.69-.57-1.42-2.56-1.34-3.4-1.2,.62-.38,1.27-.73,1.93-1.04,.49,.12,1.28,.64,2.06,1.62,.94,1.11,2.6,1.47,2.16-.34-.32-1.5-2.31-1.74-3.16-1.75,.53-.22,1.07-.42,1.63-.59,.64,.02,2.51,.16,3.26,.26,.46,.03,1.98,.05,2.3-.8,.13-.34,.05-.76-.21-1.07-.36-.44-1-.61-1.74-.47-1.26,.2-3.27,1.37-3.8,1.81-.57,.18-1.12,.38-1.66,.61,.59-.52,2.28-2.01,1.99-3.47-.46-1.86-2.63-.34-2.58,1.19,0,1.28-.16,2.23-.37,2.7-.71,.34-1.4,.71-2.06,1.12,.49-.61,1.89-2.35,1.36-3.74-.77-1.76-2.62,.09-2.32,1.6,.21,1.26,.23,2.23,.09,2.72-.65,.45-1.26,.95-1.85,1.47,.37-.66,1.49-2.64,.72-3.93-1.05-1.6-2.57,.53-2.01,1.96,.42,1.22,.6,2.17,.54,2.68-.56,.55-1.09,1.14-1.58,1.75,.25-.71,1.04-2.86,.06-4.01-1.3-1.41-2.45,.95-1.66,2.28,.63,1.16,.95,2.07,.96,2.57-.45,.63-.87,1.28-1.25,1.96,.07-.41,.21-1.18,.17-1.96,.32-.57,.31-1.11-.26-1.25-.12-.28-.29-.53-.52-.72-.12-.09-.24-.16-.35-.2,1.09-.72,1.57-1.97-.13-1.97-1.51-.05-2.24,1.77-2.45,2.61-.1-.73-.16-1.46-.18-2.2,.34-.39,1.13-.88,2.3-1.19,1.39-.42,2.38-1.78,.55-2.09-1.48-.3-2.49,1.36-2.85,2.14,.02-.73,.08-1.45,.18-2.17,.39-.33,1.27-.69,2.48-.8,1.44-.18,2.65-1.36,.89-1.98-1.43-.55-2.72,.97-3.19,1.67,.14-.72,.33-1.44,.55-2.14,.44-.27,1.36-.47,2.58-.38,1.45,.06,2.85-.91,1.22-1.82-1.31-.78-2.85,.5-3.43,1.13,.2-.54,.42-1.07,.68-1.59,.45-.45,1.83-1.73,2.41-2.21,.33-.32,1.38-1.41,.98-2.23-.15-.33-.52-.55-.93-.58-.57-.03-1.13,.32-1.53,.96-.71,1.06-1.22,3.33-1.26,4.02-.26,.54-.48,1.08-.69,1.63,.02-.79,.08-3.04-1.18-3.82-1.68-.93-2.04,1.69-.88,2.7,.96,.9,1.54,1.66,1.71,2.13-.23,.74-.42,1.49-.57,2.25-.11-.77-.44-2.99-1.82-3.54-1.81-.63-1.72,1.99-.41,2.79,1.07,.7,1.78,1.35,2.05,1.79-.11,.78-.16,1.57-.18,2.35-.23-.72-.92-2.89-2.39-3.2-1.89-.32-1.36,2.24,.07,2.81,1.18,.52,2,1.04,2.33,1.43,.02,.79,.09,1.57,.21,2.35-.35-.67-1.39-2.71-2.9-2.77-1.92,0-.97,2.44,.54,2.77,1.24,.32,2.14,.69,2.53,1.02,.15,.77,.35,1.53,.59,2.28-.49-.65-1.84-2.42-3.3-2.23-1.89,.32-.54,2.59,1,2.67,1.27,.11,2.21,.33,2.66,.59,.16,.41,.33,.81,.51,1.21l-3.48-.35s-1.52-2.21-1.94-1.24c-.41,.97,.55,2.07,.55,2.07,0,0-.71-.44-1.62-.92,.49-.36,.7-1.06-.04-1.18-.46-.06-.89,.25-1.23,.58-.1-.04-.2-.09-.3-.13,.04-.15,.05-.3,.08-.45,.19-.18,.66-.39,1.35-.57,.79-.17,1.28-1.45,.28-1.45-.81,.03-1.37,1.16-1.53,1.48,.06-.41,.1-.82,.11-1.23,.15-.21,.58-.49,1.24-.78,.75-.3,1.02-1.64,.03-1.47-.79,.17-1.14,1.34-1.26,1.69,0-.41-.03-.82-.09-1.23,.13-.23,.5-.57,1.07-.95,.69-.42,.74-1.79-.21-1.46-.76,.3-.91,1.58-.96,1.91-.08-.41-.17-.81-.3-1.21,.08-.25,.39-.65,.91-1.14,.61-.53,.42-1.9-.46-1.42-.69,.42-.63,1.67-.62,2.04-.1-.28-.23-.56-.36-.84,0-.29-.28-1.58-.67-2.16-.21-.34-.5-.52-.8-.5-.21,.01-.41,.13-.49,.3-.21,.43,.34,1,.51,1.17,.29,.24,.95,.85,1.22,1.11,.14,.29,.28,.57,.39,.87-.31-.33-1.1-.99-1.78-.58-.85,.47-.12,.98,.64,.95,.63-.05,1.1,.06,1.34,.2,.11,.36,.2,.72,.28,1.08-.27-.38-.92-1.11-1.64-.83-.92,.32-.29,.94,.47,1.04,.65,.06,1.1,.25,1.3,.43,.05,.37,.07,.74,.08,1.11-.19-.42-.72-1.26-1.48-1.1-.96,.16-.44,.88,.29,1.1,.61,.16,1.02,.41,1.19,.62-.01,.38-.04,.76-.09,1.14-.12-.44-.49-1.38-1.28-1.35-.9,0-.63,.67-.05,1.04-.06,.03-.13,.05-.2,.1-.12,.1-.2,.23-.26,.38-.27,.07-.31,.3-.2,.56-.19,.03-.33,.11-.43,.24-.03-.04-.06-.08-.09-.11,0-.26,.16-.75,.5-1.37,.41-.69-.19-1.93-.87-1.19-.53,.62-.08,1.79,.04,2.13-.26-.32-.53-.63-.83-.92-.05-.25,.04-.76,.27-1.44,.29-.75-.5-1.87-1.05-1.03-.41,.69,.2,1.75,.38,2.07-.31-.27-.63-.54-.96-.77-.08-.25-.08-.75,.04-1.43,.16-.79-.81-1.76-1.21-.84-.3,.77,.54,1.74,.75,2-.35-.22-.71-.43-1.09-.61-.13-.23-.21-.73-.22-1.44,.03-.81-1.11-1.6-1.35-.63-.16,.79,.8,1.6,1.07,1.84-.28-.12-.56-.22-.86-.31-.21-.2-1.35-.87-2.04-.98-.39-.08-.72,.01-.91,.24-.14,.17-.18,.39-.11,.56,.17,.45,.97,.43,1.21,.42,.37-.05,1.27-.12,1.64-.14,.3,.09,.61,.19,.9,.31-.45,0-1.47,.14-1.64,.91-.23,.95,.64,.76,1.13,.18,.39-.5,.79-.77,1.05-.85,.34,.16,.66,.34,.98,.53-.46-.07-1.44-.08-1.73,.64-.39,.89,.49,.85,1.08,.36,.48-.44,.93-.64,1.2-.66,.3,.21,.59,.45,.87,.69-.44-.14-1.41-.33-1.82,.34-.53,.82,.34,.92,1,.54,.53-.34,1-.46,1.27-.45,.27,.27,.54,.54,.78,.84-.4-.22-1.35-.58-1.86,.02-.66,.72,.18,.97,.9,.7,.58-.24,1.06-.29,1.32-.23,.05,.07,.11,.14,.16,.21-.06,.14-.11,.27-.16,.39-.39-.16-.85-.24-1.21,.06-.37,.28-.37,.52-.21,.67-1.16-.35-2.98-.75-3.26,0-.41,1.11,.28,1.24,.28,1.24,0,0-5.81-1.11-6.64-.69-.83,.41-.14,.97-.14,.97,0,0-6.77-.83-7.33-.41l-.55,.41s-1.52-1.66-1.8-.83c-.26,.78-.99,1.07-1.09,1.1h-.02c0-.07,.1-.61,.18-1.33l5.58-1.3s1.71-2.69-1.95-3.66c-3.66-.98-9.53-.49-9.53-.49,0,0,6.84-3.66,2.69-3.66s-8.06,2.2-8.06,2.2c0,0,4.64-5.62,.98-5.13-3.66,.49-4.15,4.88-4.15,4.88,0,0-3.42-7.08-4.4-4.15-.98,2.93,.98,5.86,.98,5.86,0,0-3.42-2.2-5.13-1.71s-4.15,2.93-4.15,2.93c0,0-.88-.68-2.01-1.42,1.6-.32,2.49-1.41,.6-2.86-2.09-1.73-5.14,.16-6.31,1.1,.65-1.16,1.38-2.27,2.16-3.35,.89-.2,2.55-.04,4.54,.78,2.41,.9,5.26,.06,3.03-2.35-1.75-2.02-4.98-.77-6.32-.04,.82-1.01,1.7-1.96,2.63-2.87,.91-.04,2.51,.41,4.31,1.54,2.22,1.3,5.17,.95,3.37-1.81-1.38-2.28-4.76-1.6-6.2-1.11,.97-.85,1.97-1.65,3.02-2.38,.9,.1,2.41,.81,4.01,2.25,1.97,1.65,4.94,1.8,3.63-1.22-1-2.51-4.53-2.36-6-2.12,1.11-.69,2.26-1.3,3.44-1.86,.88,.25,2.25,1.2,3.6,2.89,1.67,1.96,4.6,2.59,3.82-.6-.56-2.64-4.08-3.08-5.58-3.09,.94-.38,1.9-.74,2.88-1.04,1.13,.04,4.44,.28,5.76,.47,.81,.05,3.49,.09,4.06-1.42,.24-.59,.09-1.34-.37-1.9-.64-.78-1.76-1.07-3.08-.82-2.21,.36-5.79,2.43-6.74,3.2-.99,.31-1.96,.68-2.92,1.07,1.04-.92,4.03-3.55,3.52-6.12-.82-3.29-4.64-.61-4.56,2.11-.01,2.26-.27,3.94-.66,4.76-1.25,.6-2.47,1.25-3.63,1.99,.87-1.07,3.35-4.16,2.4-6.61-1.36-3.1-4.64,.17-4.1,2.83,.37,2.23,.4,3.93,.16,4.81-1.14,.8-2.23,1.67-3.26,2.6,.65-1.16,2.64-4.66,1.27-6.95-1.85-2.83-4.53,.93-3.56,3.46,.74,2.15,1.06,3.84,.96,4.74-.99,.98-1.92,2.01-2.8,3.1,.45-1.26,1.84-5.06,.1-7.08-2.3-2.48-4.32,1.68-2.94,4.02,1.08,1.99,1.67,3.6,1.72,4.51-.81,1.12-1.56,2.28-2.24,3.5,.13-.72,.36-2.07,.3-3.44,.59-1.03,.58-2.03-.48-2.28-.21-.48-.5-.91-.9-1.24-.22-.17-.42-.28-.62-.36,1.92-1.26,2.77-3.48-.24-3.49-2.67-.1-3.95,3.13-4.33,4.6-.18-1.29-.28-2.58-.32-3.88,.59-.7,2-1.56,4.06-2.11,2.46-.74,4.21-3.14,.97-3.7-2.61-.54-4.41,2.4-5.03,3.79,.04-1.28,.13-2.56,.31-3.84,.69-.59,2.24-1.22,4.38-1.41,2.55-.32,4.68-2.4,1.58-3.49-2.52-.98-4.81,1.71-5.63,2.95,.25-1.28,.59-2.54,.98-3.79,.78-.47,2.41-.83,4.56-.67,2.57,.11,5.03-1.61,2.16-3.21-2.32-1.39-5.03,.89-6.06,1.99,.36-.95,.75-1.89,1.2-2.82,.8-.8,3.23-3.06,4.26-3.9,.59-.56,2.44-2.5,1.73-3.94-.27-.58-.92-.98-1.64-1.02-1.01-.06-1.99,.56-2.69,1.69-1.24,1.87-2.16,5.89-2.24,7.12-.45,.94-.84,1.9-1.2,2.87,.04-1.39,.15-5.37-2.09-6.75-2.96-1.64-3.6,2.99-1.55,4.77,1.64,1.55,2.7,2.88,3.04,3.73-.41,1.32-.76,2.66-1.02,4.01-.2-1.37-.77-5.28-3.21-6.25-3.2-1.12-3.03,3.51-.72,4.92,1.88,1.24,3.15,2.38,3.63,3.15-.19,1.38-.29,2.77-.32,4.16-.41-1.27-1.62-5.1-4.23-5.66-3.34-.57-2.4,3.95,.12,4.96,2.08,.92,3.53,1.84,4.12,2.52,.04,1.39,.16,2.78,.37,4.15-.61-1.18-2.45-4.79-5.12-4.89-3.38,0-1.71,4.31,.95,4.89,2.19,.56,3.77,1.22,4.48,1.8,.27,1.36,.61,2.7,1.04,4.02-.86-1.15-3.25-4.28-5.83-3.95-3.34,.56-.95,4.57,1.77,4.71,2.24,.19,3.9,.58,4.71,1.04,.28,.72,.58,1.43,.9,2.14l-6.14-.61s-2.69-3.91-3.42-2.2c-.73,1.71,.98,3.66,.98,3.66,0,0-1.25-.78-2.86-1.62,.87-.64,1.24-1.87-.07-2.09-.81-.11-1.58,.44-2.17,1.02-.18-.08-.35-.15-.53-.22,.07-.28,.13-.56,.18-.84,.37-.3,1.2-.65,2.34-.94,1.39-.3,2.27-2.56,.5-2.56-1.39,.06-2.36,1.94-2.68,2.56,.11-.72,.17-1.45,.19-2.18,.31-.36,1.07-.84,2.16-1.32,1.32-.53,1.81-2.9,.06-2.6-1.36,.29-2,2.3-2.21,2.96-.02-.73-.07-1.46-.17-2.18,.25-.4,.91-1,1.9-1.65,1.21-.74,1.3-3.16-.37-2.58-1.28,.51-1.58,2.56-1.68,3.28-.13-.7-.31-1.4-.53-2.08,.16-.44,.7-1.14,1.59-1.97,1.07-.94,.74-3.36-.81-2.5-1.17,.72-1.12,2.81-1.1,3.53-.19-.51-.4-1.02-.63-1.51-.04-.63-.52-2.74-1.17-3.72-.37-.59-.88-.92-1.41-.89-.38,.02-.72,.23-.86,.53-.37,.76,.6,1.77,.9,2.07,.54,.44,1.82,1.63,2.23,2.04,.23,.48,.44,.98,.63,1.47-.54-.58-1.96-1.77-3.17-1.04-1.5,.84-.22,1.74,1.13,1.68,1.13-.09,1.98,.1,2.39,.35,.21,.65,.38,1.31,.51,1.98-.43-.65-1.63-2.06-2.95-1.55-1.63,.57-.51,1.66,.83,1.83,1.12,.1,1.93,.43,2.29,.74,.09,.67,.14,1.34,.16,2.01-.33-.73-1.27-2.26-2.64-1.98-1.7,.29-.78,1.55,.51,1.94,1.08,.29,1.82,.74,2.13,1.1-.02,.68-.07,1.36-.17,2.03-.2-.77-.87-2.46-2.27-2.41-1.57,0-1.12,1.16-.12,1.82-.11,.05-.21,.1-.33,.19-.22,.18-.37,.41-.48,.67-.47,.12-.54,.53-.33,.99-.32,.06-.57,.19-.75,.41-.05-.08-.11-.16-.16-.23,.01-.47,.31-1.31,.89-2.38,.72-1.23-.33-3.41-1.54-2.11-.91,1.06-.18,3.05,.05,3.71-.46-.57-.95-1.11-1.46-1.62-.05-.47,.11-1.35,.5-2.48,.51-1.33-.89-3.3-1.86-1.81-.72,1.2,.32,3.03,.66,3.64-.54-.48-1.11-.94-1.71-1.36-.13-.46-.11-1.35,.08-2.52,.28-1.39-1.43-3.11-2.15-1.48-.5,1.29,.8,2.9,1.26,3.46-.61-.38-1.25-.73-1.9-1.04-.2-.43-.34-1.31-.35-2.5,.04-1.42-1.96-2.83-2.39-1.11-.27,1.35,1.3,2.73,1.84,3.21-.5-.21-1.02-.4-1.54-.56-.49-.4-2.36-1.48-3.52-1.67-.69-.13-1.28,.02-1.61,.43-.24,.29-.32,.68-.19,.99,.3,.79,1.71,.77,2.13,.74,.69-.1,2.43-.22,3.02-.24,.51,.16,1.01,.34,1.51,.54-.79,0-2.63,.23-2.92,1.62-.41,1.67,1.13,1.34,2,.32,.72-.91,1.45-1.39,1.9-1.5,.61,.29,1.21,.61,1.78,.97-.77-.13-2.62-.21-3.14,1.11-.69,1.58,.87,1.51,1.9,.64,.86-.77,1.65-1.13,2.12-1.17,.54,.38,1.06,.8,1.56,1.24-.76-.25-2.52-.61-3.25,.58-.94,1.44,.6,1.63,1.76,.95,.94-.6,1.78-.83,2.26-.81,.49,.48,.94,.98,1.38,1.5-.7-.38-2.39-1.04-3.31,.02-1.17,1.26,.32,1.71,1.59,1.23,1.04-.43,1.91-.52,2.38-.41,.09,.12,.17,.24,.25,.36-.11,.26-.2,.48-.29,.69-.69-.29-1.5-.41-2.14,.12-.64,.49-.67,.91-.38,1.18-2.06-.61-5.25-1.32-5.75-.01-.73,1.95,.49,2.2,.49,2.2,0,0-10.26-1.95-11.72-1.22-1.47,.73-.24,1.71-.24,1.71,0,0-11.97-1.47-12.94-.73l-.98,.73s-2.69-2.93-3.18-1.47c-.49,1.47-1.95,1.95-1.95,1.95,0,0,1.47-8.55-.49-8.79-1.95-.24-2.69,6.11-2.69,6.11,0,0-5.37-7.08-6.11-5.13-.73,1.95,2.69,4.64,2.69,4.64,0,0-4.64-1.22-3.91,.24,.73,1.47,3.66,3.18,3.66,3.18h-15.7l-1.32-.26h-30.61s-.68-1.89-.44-3.53c.23-1.63-7.47,1.87-7.47,1.87,0,0,1.4-2.8-.23-4.2-1.63-1.4-6.54,4.2-6.54,4.2,0,0,.93-1.4,.7-3.27-.23-1.87-4.2,3.27-4.2,3.27,0,0,1.17-7-1.17-7.47s-3.27,7.24-3.27,7.24c0,0-1.17-4.44-4.9-4.9-3.74-.47,1.17,5.6,1.17,5.6,0,0-2.57-2.8-3.97-1.17-1.4,1.63,1.4,2.1,1.4,2.1h-8.87l-.23-1.63c-.23-1.63-6.54,3.04-6.54,3.04,0,0,.93-.93,2.8-3.27,1.87-2.33-10.04,3.5-10.04,3.5,0,0,1.63-1.4,2.33-4.67,.7-3.27-7.47,4.44-7.47,4.44l-11.44,1.63h12.84l-10.27,1.63H466.56l-8.18-1.3h10.22Zm-265.62-16.15c-.22,.68-.26,1.51-.06,2.28-.66,1.19-.9,2.63-.96,3.46-.4-1.27-.73-2.56-.98-3.86,.31-.54,.99-1.22,2.01-1.88Zm-.34,7.65c.23-.67,.91-1.6,2.02-2.56,.75,1.12,1.22,2.05,1.37,2.68-.13,.27-.26,.55-.38,.83-.82,.82-1.43,1.52-1.43,1.52l-.54-.05c-.38-.8-.72-1.6-1.03-2.42Zm-13.93-.63c-.05,.28-.11,.55-.18,.82-.22-.08-.44-.16-.65-.24-.05-.13-.11-.26-.18-.38,.1-.4,.08-.84-.03-1.19,.53,.35,.89,.7,1.05,.99Zm-5.34,3.19s.08-.01,.12-.02l-.12,.28s-.23-.09-.6-.21c.2,0,.4,0,.6-.05Zm83.33,1.32c-.03,.16-.05,.32-.09,.48-.13-.05-.25-.09-.38-.14-.03-.08-.06-.15-.1-.22,.06-.23,.05-.47-.02-.67,.3,.19,.49,.39,.58,.55Zm-3.36,1.84c.11,0,.23,0,.35-.02,.02,0,.04,0,.06,0l-.06,.16s-.13-.05-.35-.12Zm11.45-5.8c-.13,.38-.15,.85-.04,1.29-.37,.67-.51,1.49-.54,1.96-.23-.72-.41-1.45-.56-2.18,.18-.31,.56-.69,1.14-1.07Zm-.19,4.33c.13-.38,.51-.91,1.14-1.45,.44,.66,.69,1.18,.76,1.54-.07,.15-.14,.3-.21,.45-.46,.46-.81,.86-.81,.86l-.3-.03c-.21-.45-.41-.91-.58-1.37Zm51.92-6.85c-.2,1.04-.46,2.06-.78,3.07-.05-.66-.24-1.81-.76-2.76,.16-.61,.13-1.27-.05-1.82,.81,.53,1.35,1.07,1.6,1.5Zm-2.93,2.56c.88,.76,1.42,1.51,1.61,2.04-.25,.65-.52,1.29-.82,1.93l-.43,.04s-.49-.56-1.14-1.21c-.1-.22-.2-.44-.31-.66,.12-.51,.49-1.25,1.09-2.14Zm12.7,1.55c.12-.23,.39-.51,.83-.8-.09,.29-.11,.63-.02,.96-.05,.1-.1,.19-.14,.29-.18,.06-.35,.12-.53,.19-.05-.21-.1-.43-.14-.64Zm4.16,2.51s.06,0,.09,.01c.17,.03,.33,.04,.49,.03-.31,.1-.49,.17-.49,.17l-.09-.22Z" style="fill: rgb(163, 163, 163); transform-origin: 245.535px 356.728px;" id="elbpornub3bg4" class="animable"></path></g><g id="freepik--plants-1--inject-24" class="animable" style="transform-origin: 237.181px 415.871px;"><g id="elfuj53y6rvbh" class="animable" style="transform-origin: 237.181px 415.871px;"><g id="eleaz5es0jkc" class="animable" style="transform-origin: 404.26px 410.88px;"><g id="elh7cm7j3152g" class="animable" style="transform-origin: 414.351px 423.36px;"><path d="M381.12,454.51c-.28-.12-.43-.43-.34-.73,8.01-24.54,28.59-43.45,53.72-49.33,.32-.07,.63,.12,.71,.44,.07,.32-.12,.63-.44,.71-24.73,5.79-44.99,24.4-52.87,48.55-.1,.31-.43,.48-.74,.38-.01,0-.03,0-.04-.02Z" style="fill: rgb(0, 255, 136); transform-origin: 407.989px 429.497px;" id="el79oq5e2zeig" class="animable"></path><g id="el8titmikk77w" class="animable" style="transform-origin: 390.467px 435.236px;"><path d="M400.84,438.76c-5.55-4.59-14.34,3.02-14.2,3.29-.62,1.07-1.22,2.16-1.79,3.27,1.22-1.13,5.25-1.76,10.54-.58,5.29,.98,10.9-1.8,5.45-5.98Z" style="fill: rgb(0, 255, 136); transform-origin: 393.959px 441.306px;" id="elh8mfvjm1oy" class="animable"></path><path d="M384.22,426.26c-5.61-4.31-8.35,5.04-4.69,9.4,3.44,4.39,5.3,7.97,5.22,9.62,.5-1.15,1.02-2.28,1.57-3.39-.28-.04,3.05-11.36-2.11-15.63Z" style="fill: rgb(0, 255, 136); transform-origin: 382.494px 435.216px;" id="elkud2e0oafd" class="animable"></path></g><g id="elk0i89dh7wpe" class="animable" style="transform-origin: 398.133px 425.268px;"><path d="M407.97,430.8c-4.71-5.45-14.57,.49-14.48,.76-.78,.93-1.55,1.89-2.28,2.87,1.38-.88,5.44-.79,10.44,1.28,5.04,1.89,10.99,.12,6.32-4.91Z" style="fill: rgb(0, 255, 136); transform-origin: 400.436px 432.478px;" id="eljtlxtjt59q" class="animable"></path><path d="M393.68,415.68c-4.8-5.18-9.02,3.51-6.13,8.4,2.67,4.89,3.91,8.7,3.57,10.29,.67-1.03,1.37-2.04,2.09-3.03-.27-.07,4.84-10.57,.48-15.66Z" style="fill: rgb(0, 255, 136); transform-origin: 391.031px 424.228px;" id="elohj7ap65jqj" class="animable"></path></g><g id="elzbze9i4q21c" class="animable" style="transform-origin: 407.16px 417.109px;"><path d="M416.28,424.17c-3.73-6.15-14.42-1.98-14.37-1.7-.92,.78-1.83,1.59-2.71,2.42,1.5-.62,5.47,.15,10.05,3.05,4.64,2.71,10.79,1.98,7.03-3.77Z" style="fill: rgb(0, 255, 136); transform-origin: 408.322px 425.143px;" id="el1vmbie909q8" class="animable"></path><path d="M404.73,406.87c-3.87-5.91-9.46,1.94-7.42,7.23,1.82,5.26,2.41,9.21,1.82,10.72,.83-.89,1.68-1.76,2.55-2.61-.26-.11,6.5-9.58,3.06-15.33Z" style="fill: rgb(0, 255, 136); transform-origin: 401.297px 414.791px;" id="elzcv1t4gh1l9" class="animable"></path></g><g id="elb83z3cvueje" class="animable" style="transform-origin: 417.361px 410.698px;"><path d="M425.61,419.02c-2.66-6.69-13.91-4.35-13.9-4.07-1.04,.62-2.07,1.26-3.08,1.93,1.58-.36,5.36,1.07,9.39,4.69,4.12,3.45,10.32,3.75,7.58-2.55Z" style="fill: rgb(0, 255, 136); transform-origin: 417.453px 419.164px;" id="elxvcflsbrvvi" class="animable"></path><path d="M417.12,400.03c-2.83-6.48-9.68,.35-8.55,5.9,.91,5.49,.84,9.49,0,10.87,.96-.74,1.94-1.45,2.94-2.15-.24-.14,8.02-8.37,5.6-14.62Z" style="fill: rgb(0, 255, 136); transform-origin: 413px 407.097px;" id="elfgvudkxsm4v" class="animable"></path></g><g id="elku1ck5ay3o9" class="animable" style="transform-origin: 427.63px 406.153px;"><path d="M435.75,415.48c-1.5-7.04-13.07-6.6-13.1-6.32-1.14,.44-2.26,.9-3.37,1.4,1.62-.1,5.12,1.94,8.5,6.18,3.48,4.09,9.6,5.41,7.97-1.26Z" style="fill: rgb(0, 255, 136); transform-origin: 427.65px 414.589px;" id="el4kxl235e2jj" class="animable"></path><path d="M430.59,395.33c-1.7-6.86-9.69-1.27-9.51,4.4-.04,5.57-.79,9.51-1.84,10.73,1.08-.57,2.17-1.11,3.28-1.63-.23-.18,9.39-6.93,8.08-13.5Z" style="fill: rgb(0, 255, 136); transform-origin: 424.981px 401.311px;" id="el4wl018ioly6" class="animable"></path></g><g id="elfcfk6y23lnd" class="animable" style="transform-origin: 439.83px 403.444px;"><path d="M429.22,406.49c-.17-.1,8.57-5.97,14.26-6.9,5.56-1.07,7.68,2.85,6.77,5.14-.89,2.32-4.79,2.91-8.1,2.72-3.25-.46-12.88-1.13-12.92-.96Z" style="fill: rgb(0, 255, 136); transform-origin: 439.836px 403.446px;" id="el8d9z2qtdnwm" class="animable"></path><path d="M429.07,406.85s-.03-.01-.05-.02c-.14-.08-.22-.25-.19-.42,0-.01,0-.02,.01-.04,.03-.11,.05-.19,.2-.24,1.4-1.35,9.48-6.14,14.37-6.93,2.74-.53,5.08,.09,6.42,1.72,.96,1.17,1.27,2.72,.77,3.96-1.2,3.14-6.8,3.06-8.49,2.96-3.17-.44-11.93-1.05-12.77-.98-.09,.03-.19,.03-.28,0Zm18.48-6.65c-.93-.38-2.22-.57-4-.23-4.49,.73-10.82,4.54-13.15,6.11,.82,.03,2.1,.12,4.1,.26,2.57,.19,5.95,.47,7.69,.72,3.17,.19,6.88-.36,7.68-2.47,.39-.98,.14-2.23-.65-3.18-.32-.39-.85-.87-1.68-1.21Z" style="fill: rgb(0, 255, 136); transform-origin: 439.83px 403.444px;" id="els2vv5i8rq2i" class="animable"></path></g></g><g id="elk30h4zvotmb" class="animable" style="transform-origin: 375.246px 410.643px;"><path d="M381.54,454.03c-.28,.13-.61,.02-.76-.25-12.53-22.57-12.38-50.52,.41-72.93,.16-.28,.52-.38,.8-.22,.28,.16,.38,.52,.22,.8-12.58,22.06-12.74,49.57-.4,71.78,.16,.28,.06,.64-.23,.8-.01,0-.03,.01-.04,.02Z" style="fill: rgb(0, 255, 136); transform-origin: 376.888px 417.319px;" id="el2mlu5sie3ox" class="animable"></path><g id="elzwmyrgy7ey" class="animable" style="transform-origin: 373.744px 436.898px;"><path d="M383.43,428.86c-7.14,.94-7.54,12.56-7.25,12.65,.36,1.18,.75,2.36,1.18,3.53,0-1.66,2.28-5.04,6.75-8.12,4.32-3.21,6.1-9.21-.67-8.06Z" style="fill: rgb(0, 255, 136); transform-origin: 382.03px 436.878px;" id="el9trb8ajbncf" class="animable"></path><path d="M362.95,432.53c-6.97,1.18-1.98,9.55,3.7,9.83,5.56,.47,9.45,1.54,10.6,2.72-.5-1.14-.97-2.3-1.42-3.46-.21,.18-6.25-9.96-12.89-9.09Z" style="fill: rgb(0, 255, 136); transform-origin: 368.397px 438.779px;" id="elkotokagalhg" class="animable"></path></g><g id="eltw7n4qxhpmc" class="animable" style="transform-origin: 372.124px 425.613px;"><path d="M382.44,418.23c-7.19-.26-9.56,11.01-9.3,11.13,.15,1.21,.33,2.42,.55,3.63,.29-1.61,3.12-4.52,8.05-6.78,4.81-2.41,7.57-7.97,.7-7.98Z" style="fill: rgb(0, 255, 136); transform-origin: 379.842px 425.608px;" id="el7c2e30hk40p" class="animable"></path><path d="M361.64,418.4c-7.07,0-3.57,9,1.98,10.21,5.4,1.37,9.04,3.06,9.97,4.39-.3-1.19-.56-2.39-.8-3.59-.23,.15-4.45-10.74-11.15-11.01Z" style="fill: rgb(0, 255, 136); transform-origin: 365.637px 425.7px;" id="eln7111dp1qe" class="animable"></path></g><g id="el5howijsfjgu" class="animable" style="transform-origin: 372.574px 412.419px;"><path d="M383.24,407.62c-7.05-1.45-11.26,9.22-11.02,9.37-.05,1.21-.08,2.42-.07,3.64,.56-1.52,3.83-3.9,9.07-5.29,5.14-1.55,8.8-6.56,2.02-7.72Z" style="fill: rgb(0, 255, 136); transform-origin: 379.544px 414.057px;" id="elk151x6un9c" class="animable"></path><path d="M362.71,404.31c-6.97-1.18-5.02,8.25,.25,10.36,5.09,2.25,8.39,4.5,9.09,5.96-.09-1.21-.15-2.43-.18-3.64-.25,.12-2.6-11.28-9.16-12.68Z" style="fill: rgb(0, 255, 136); transform-origin: 365.129px 412.419px;" id="el4b7x16s1wlg" class="animable"></path></g><g id="eltleyllz71ba" class="animable" style="transform-origin: 375.04px 399.245px;"><path d="M385.81,397.28c-6.71-2.6-12.65,7.24-12.44,7.42-.25,1.18-.48,2.37-.68,3.57,.81-1.4,4.43-3.2,9.83-3.69,5.33-.67,9.77-5.01,3.29-7.29Z" style="fill: rgb(0, 255, 136); transform-origin: 380.861px 402.556px;" id="elpm4fe0pvf7h" class="animable"></path><path d="M366.12,390.58c-6.67-2.33-6.33,7.33-1.49,10.28,4.64,3.07,7.52,5.84,7.97,7.39,.11-1.21,.26-2.41,.43-3.62-.27,.08-.67-11.57-6.9-14.05Z" style="fill: rgb(0, 255, 136); transform-origin: 367.039px 399.235px;" id="eluiz45g9tnxb" class="animable"></path></g><g id="elhaefebn4q0u" class="animable" style="transform-origin: 379.457px 386.475px;"><path d="M390.12,387.44c-6.18-3.69-13.73,5.09-13.55,5.3-.45,1.13-.88,2.27-1.27,3.42,1.03-1.25,4.91-2.43,10.31-2.02,5.37,.23,10.5-3.35,4.5-6.7Z" style="fill: rgb(0, 255, 136); transform-origin: 384.054px 391.348px;" id="elugletiy3bre" class="animable"></path><path d="M371.84,377.51c-6.19-3.42-7.52,6.24-3.25,9.97,4.06,3.82,6.43,7.04,6.61,8.65,.31-1.18,.66-2.35,1.03-3.51-.29,.04,1.31-11.6-4.4-15.11Z" style="fill: rgb(0, 255, 136); transform-origin: 371.168px 386.46px;" id="el77xh9dl6ig" class="animable"></path></g><g id="el7mo8o5hyure" class="animable" style="transform-origin: 385.733px 376.851px;"><path d="M379.09,386.1c-.18,.06,1.45-10.34,4.65-15.14,3-4.81,7.31-3.69,8.37-1.46,1.1,2.23-1.13,5.49-3.52,7.78-2.55,2.07-9.59,8.67-9.5,8.82Z" style="fill: rgb(0, 255, 136); transform-origin: 385.738px 376.844px;" id="els6eq5fs16p" class="animable"></path><path d="M379.25,386.46s-.03,.01-.05,.02c-.16,.05-.34,0-.44-.14,0,0-.01-.02-.02-.03-.06-.09-.1-.17-.04-.31-.03-1.94,1.96-11.13,4.7-15.25,1.48-2.37,3.53-3.66,5.63-3.54,1.51,.09,2.86,.92,3.43,2.13,1.49,3.02-2.38,7.07-3.6,8.23-2.48,2.02-8.89,8.03-9.41,8.69-.04,.09-.11,.16-.2,.2Zm7.71-18.07c-.91,.42-1.93,1.24-2.89,2.78-2.52,3.79-4.04,11.02-4.47,13.79,.58-.58,1.52-1.46,2.98-2.83,1.89-1.76,4.39-4.04,5.76-5.15,2.29-2.2,4.41-5.28,3.42-7.3-.45-.96-1.54-1.62-2.77-1.69-.5-.03-1.22,.03-2.03,.4Z" style="fill: rgb(0, 255, 136); transform-origin: 385.733px 376.851px;" id="elk33uo9vrhhr" class="animable"></path></g></g></g><g id="el0yuyem3bwh8" class="animable" style="transform-origin: 332.678px 431.674px;"><g id="elz8x6wpu2qda" class="animable" style="transform-origin: 327.39px 438.213px;"><path d="M344.8,454.53c.15-.06,.23-.23,.18-.38-4.2-12.86-14.98-22.76-28.14-25.84-.17-.04-.33,.06-.37,.23-.04,.17,.06,.33,.23,.37,12.95,3.03,23.57,12.78,27.7,25.43,.05,.16,.23,.25,.39,.2h.02Z" style="fill: rgb(0, 255, 136); transform-origin: 330.728px 441.428px;" id="ele4vdr21v4za" class="animable"></path><g id="elqr3e7grcne" class="animable" style="transform-origin: 339.907px 444.434px;"><path d="M334.47,446.28c2.91-2.41,7.51,1.58,7.44,1.73,.33,.56,.64,1.13,.94,1.71-.64-.59-2.75-.92-5.52-.3-2.77,.51-5.71-.94-2.85-3.13Z" style="fill: rgb(0, 255, 136); transform-origin: 338.08px 447.614px;" id="elwg349svfgy" class="animable"></path><path d="M343.18,439.73c2.94-2.26,4.37,2.64,2.45,4.93-1.8,2.3-2.78,4.18-2.74,5.04-.26-.6-.53-1.19-.82-1.78,.14-.02-1.6-5.95,1.1-8.19Z" style="fill: rgb(0, 255, 136); transform-origin: 344.075px 444.424px;" id="eld0s98mausws" class="animable"></path></g><g id="elbqayod43jg" class="animable" style="transform-origin: 335.895px 439.211px;"><path d="M330.74,442.11c2.46-2.85,7.63,.26,7.59,.4,.41,.49,.81,.99,1.2,1.5-.72-.46-2.85-.42-5.47,.67-2.64,.99-5.76,.07-3.31-2.57Z" style="fill: rgb(0, 255, 136); transform-origin: 334.696px 442.99px;" id="elcb4llnnczr" class="animable"></path><path d="M338.22,434.19c2.52-2.72,4.73,1.84,3.21,4.4-1.4,2.56-2.05,4.56-1.87,5.39-.35-.54-.72-1.07-1.09-1.59,.14-.04-2.54-5.54-.25-8.21Z" style="fill: rgb(0, 255, 136); transform-origin: 339.61px 438.666px;" id="elzogvqmfc3wq" class="animable"></path></g><g id="elb9nykgfle8k" class="animable" style="transform-origin: 331.164px 434.945px;"><path d="M326.38,438.64c1.96-3.22,7.55-1.04,7.53-.89,.48,.41,.96,.83,1.42,1.27-.79-.33-2.86,.08-5.26,1.6-2.43,1.42-5.65,1.04-3.68-1.97Z" style="fill: rgb(0, 255, 136); transform-origin: 330.555px 439.153px;" id="elsy7ewat9ov" class="animable"></path><path d="M332.43,429.58c2.03-3.1,4.96,1.02,3.89,3.79-.95,2.75-1.26,4.83-.95,5.61-.43-.47-.88-.92-1.33-1.37,.14-.06-3.4-5.02-1.6-8.03Z" style="fill: rgb(0, 255, 136); transform-origin: 334.238px 433.727px;" id="el1v9tuiy6yeo" class="animable"></path></g><g id="elx0k9zmovhpi" class="animable" style="transform-origin: 325.814px 431.582px;"><path d="M321.5,435.94c1.39-3.5,7.29-2.28,7.28-2.13,.54,.32,1.08,.66,1.61,1.01-.83-.19-2.81,.56-4.92,2.46-2.16,1.81-5.41,1.96-3.97-1.34Z" style="fill: rgb(0, 255, 136); transform-origin: 325.767px 436.018px;" id="elbsppk2s961j" class="animable"></path><path d="M325.94,425.99c1.48-3.39,5.07,.18,4.48,3.09-.48,2.88-.44,4.97,0,5.69-.5-.39-1.02-.76-1.54-1.12,.13-.08-4.2-4.38-2.93-7.66Z" style="fill: rgb(0, 255, 136); transform-origin: 328.101px 429.69px;" id="el7kqhz579664" class="animable"></path></g><g id="elcowa3tiqr2e" class="animable" style="transform-origin: 320.435px 429.204px;"><path d="M316.18,434.09c.79-3.69,6.85-3.46,6.86-3.31,.59,.23,1.18,.47,1.77,.73-.85-.05-2.68,1.02-4.45,3.24-1.83,2.14-5.03,2.84-4.18-.66Z" style="fill: rgb(0, 255, 136); transform-origin: 320.425px 433.623px;" id="el132bkzmws0j" class="animable"></path><path d="M318.89,423.53c.89-3.59,5.08-.66,4.98,2.31,.02,2.92,.41,4.98,.96,5.62-.56-.3-1.14-.58-1.72-.85,.12-.1-4.92-3.63-4.23-7.07Z" style="fill: rgb(0, 255, 136); transform-origin: 321.823px 426.667px;" id="el3hoqdh3ckzz" class="animable"></path></g><g id="eltdr844foh9" class="animable" style="transform-origin: 314.04px 427.78px;"><path d="M319.6,429.37c.09-.05-4.49-3.13-7.47-3.61-2.91-.56-4.03,1.49-3.54,2.69,.46,1.22,2.51,1.53,4.24,1.42,1.7-.24,6.75-.59,6.77-.5Z" style="fill: rgb(0, 255, 136); transform-origin: 314.04px 427.778px;" id="el4y7097jbwa7" class="animable"></path><path d="M319.68,429.56h.02c.08-.06,.12-.14,.1-.23v-.02c-.02-.06-.04-.1-.11-.12-.74-.71-4.97-3.22-7.53-3.63-1.43-.28-2.66,.05-3.36,.9-.51,.61-.66,1.43-.4,2.07,.63,1.65,3.56,1.6,4.45,1.55,1.66-.23,6.25-.55,6.69-.52,.05,.02,.1,.02,.15,0Zm-9.68-3.48c.49-.2,1.16-.3,2.1-.12,2.35,.38,5.67,2.38,6.89,3.2-.43,.02-1.1,.06-2.15,.14-1.35,.1-3.12,.25-4.03,.38-1.66,.1-3.6-.19-4.02-1.29-.21-.51-.07-1.17,.34-1.66,.17-.2,.45-.46,.88-.63Z" style="fill: rgb(0, 255, 136); transform-origin: 314.04px 427.78px;" id="elo9jy68oecai" class="animable"></path></g></g><g id="elg99v3wrgb4o" class="animable" style="transform-origin: 347.882px 431.552px;"><path d="M344.58,454.28c.15,.07,.32,.01,.4-.13,6.57-11.82,6.48-26.46-.22-38.21-.08-.15-.27-.2-.42-.11-.15,.08-.2,.27-.12,.42,6.59,11.56,6.67,25.96,.21,37.6-.08,.15-.03,.34,.12,.42h.02Z" style="fill: rgb(0, 255, 136); transform-origin: 347.015px 435.047px;" id="elwnp06tau5v9" class="animable"></path><g id="elayz341ud7r" class="animable" style="transform-origin: 348.665px 445.312px;"><path d="M343.59,441.1c3.74,.49,3.95,6.58,3.8,6.63-.19,.62-.39,1.24-.62,1.85,0-.87-1.19-2.64-3.54-4.25-2.26-1.68-3.19-4.82,.35-4.22Z" style="fill: rgb(0, 255, 136); transform-origin: 344.324px 445.307px;" id="elodanrzrn2vq" class="animable"></path><path d="M354.32,443.02c3.65,.62,1.04,5-1.94,5.15-2.91,.24-4.95,.81-5.55,1.42,.26-.6,.51-1.2,.74-1.81,.11,.09,3.27-5.22,6.75-4.76Z" style="fill: rgb(0, 255, 136); transform-origin: 351.467px 446.291px;" id="el5jn0rsf537o" class="animable"></path></g><g id="elase02ob8i6o" class="animable" style="transform-origin: 349.511px 439.394px;"><path d="M344.11,435.52c3.77-.14,5.01,5.77,4.87,5.83-.08,.63-.17,1.27-.29,1.9-.15-.84-1.63-2.37-4.22-3.55-2.52-1.26-3.97-4.18-.37-4.18Z" style="fill: rgb(0, 255, 136); transform-origin: 345.466px 439.384px;" id="elabhyuvvl5hh" class="animable"></path><path d="M355.01,435.62c3.7,0,1.87,4.71-1.04,5.35-2.83,.72-4.73,1.6-5.22,2.3,.15-.62,.29-1.25,.42-1.88,.12,.08,2.33-5.63,5.84-5.77Z" style="fill: rgb(0, 255, 136); transform-origin: 352.915px 439.445px;" id="elzotyvbdzku" class="animable"></path></g><g id="elg7ovcqd4v6q" class="animable" style="transform-origin: 349.286px 432.488px;"><path d="M343.69,429.97c3.69-.76,5.9,4.83,5.78,4.91,.03,.63,.04,1.27,.04,1.91-.29-.8-2.01-2.04-4.75-2.77-2.69-.81-4.61-3.44-1.06-4.04Z" style="fill: rgb(0, 255, 136); transform-origin: 345.637px 433.344px;" id="el3ogmqmj36yw" class="animable"></path><path d="M354.45,428.24c3.65-.62,2.63,4.32-.13,5.43-2.67,1.18-4.4,2.36-4.76,3.12,.05-.64,.08-1.27,.09-1.91,.13,.06,1.36-5.91,4.8-6.64Z" style="fill: rgb(0, 255, 136); transform-origin: 353.184px 432.488px;" id="el3u4edwq83kg" class="animable"></path></g><g id="elcptgh6bcmv9" class="animable" style="transform-origin: 347.983px 425.576px;"><path d="M342.34,424.55c3.51-1.36,6.63,3.79,6.52,3.88,.13,.62,.25,1.24,.35,1.87-.42-.74-2.32-1.68-5.15-1.93-2.79-.35-5.12-2.63-1.72-3.82Z" style="fill: rgb(0, 255, 136); transform-origin: 344.93px 427.311px;" id="elrjjp2p37ylg" class="animable"></path><path d="M352.66,421.04c3.49-1.22,3.32,3.84,.78,5.39-2.43,1.61-3.94,3.06-4.17,3.87-.06-.63-.13-1.26-.22-1.9,.14,.04,.35-6.06,3.62-7.36Z" style="fill: rgb(0, 255, 136); transform-origin: 352.184px 425.576px;" id="eldtpitjp0v2g" class="animable"></path></g><g id="elb4i0zadssi" class="animable" style="transform-origin: 345.676px 418.887px;"><path d="M340.09,419.4c3.24-1.93,7.19,2.67,7.1,2.77,.24,.59,.46,1.19,.67,1.79-.54-.66-2.57-1.27-5.4-1.06-2.81,.12-5.5-1.76-2.36-3.51Z" style="fill: rgb(0, 255, 136); transform-origin: 343.275px 421.444px;" id="elirrs4jein0f" class="animable"></path><path d="M349.66,414.19c3.24-1.79,3.94,3.27,1.7,5.22-2.13,2-3.37,3.69-3.46,4.53-.17-.62-.35-1.23-.54-1.84,.15,.02-.69-6.07,2.3-7.91Z" style="fill: rgb(0, 255, 136); transform-origin: 350.01px 418.877px;" id="elwmkxcg0b8ks" class="animable"></path></g><g id="el9n1gwu84y2u" class="animable" style="transform-origin: 342.381px 413.846px;"><path d="M345.87,418.7c.1,.03-.76-5.42-2.43-7.93-1.57-2.52-3.83-1.93-4.39-.76-.58,1.17,.59,2.88,1.84,4.08,1.33,1.09,5.02,4.54,4.98,4.62Z" style="fill: rgb(0, 255, 136); transform-origin: 342.387px 413.858px;" id="elyfqb7vpc7yo" class="animable"></path><path d="M345.78,418.88h.03c.08,.04,.18,0,.23-.06v-.02s.06-.09,.03-.16c.02-1.02-1.02-5.83-2.46-7.99-.77-1.24-1.85-1.92-2.95-1.85-.79,.05-1.5,.48-1.8,1.12-.78,1.58,1.25,3.7,1.89,4.31,1.3,1.06,4.66,4.21,4.93,4.55,.02,.05,.06,.08,.1,.11Zm-4.04-9.46c.48,.22,1.01,.65,1.52,1.45,1.32,1.98,2.11,5.77,2.34,7.22-.31-.31-.8-.77-1.56-1.48-.99-.92-2.3-2.11-3.02-2.7-1.2-1.15-2.31-2.77-1.79-3.83,.24-.5,.81-.85,1.45-.88,.26-.02,.64,.02,1.06,.21Z" style="fill: rgb(0, 255, 136); transform-origin: 342.381px 413.846px;" id="el15wb6pxcdpn" class="animable"></path></g></g></g><path d="M468.04,446.18c-7.65-2.04-19.89-1.02-19.89-1.02,0,0,14.28-7.65,5.61-7.65s-16.83,4.59-16.83,4.59c0,0,9.69-11.73,2.04-10.71-7.65,1.02-8.67,10.2-8.67,10.2,0,0-7.14-14.79-9.18-8.67-2.04,6.12,2.04,12.24,2.04,12.24,0,0-7.14-4.59-10.71-3.57-3.57,1.02-8.67,6.12-8.67,6.12,0,0-10.39-8.14-13.77-6.63-3.37,1.51-9.18,8.16-9.18,8.16l-15.3-1.53s-5.61-8.16-7.14-4.59c-1.53,3.57,2.04,7.65,2.04,7.65,0,0-18.63-11.69-20.87-6.25l-2.24,5.43s-14.11-5.3-15.64-1.22c-1.53,4.08,1.02,4.59,1.02,4.59,0,0-21.42-4.08-24.48-2.55-3.06,1.53-.51,3.57-.51,3.57,0,0-24.99-3.06-27.03-1.53l-2.04,1.53s-5.61-6.12-6.63-3.06c-1.02,3.06-4.08,4.08-4.08,4.08,0,0,3.06-17.85-1.02-18.36-4.08-.51-5.61,12.75-5.61,12.75,0,0-11.22-14.79-12.75-10.71s5.61,9.69,5.61,9.69c0,0-9.69-2.55-8.16,.51,1.53,3.06,7.65,6.63,7.65,6.63h-32.79l-2.75-.54h-63.91s-1.41-3.95-.92-7.36-15.6,3.9-15.6,3.9c0,0,2.92-5.85-.49-8.77-3.41-2.92-13.65,8.77-13.65,8.77,0,0,1.95-2.92,1.46-6.82-.49-3.9-8.77,6.82-8.77,6.82,0,0,2.44-14.62-2.44-15.6-4.87-.97-6.82,15.11-6.82,15.11,0,0-2.44-9.26-10.24-10.24-7.8-.97,2.44,11.7,2.44,11.7,0,0-5.36-5.85-8.29-2.44-2.92,3.41,2.92,4.39,2.92,4.39h-18.52l-.49-3.41c-.49-3.41-13.65,6.34-13.65,6.34,0,0,1.95-1.95,5.85-6.82s-20.96,7.31-20.96,7.31c0,0,3.41-2.92,4.87-9.75,1.46-6.82-15.6,9.26-15.6,9.26l-23.89,3.41H28.24l-21.45,3.41H469.06l-12.24-7.14,15.3-3.57s3.57-5.61-4.08-7.65Z" style="fill: rgb(0, 255, 136); transform-origin: 237.181px 447.934px;" id="el4ln0w42rmxl" class="animable"></path></g></g><g id="freepik--Character--inject-24" class="animable" style="transform-origin: 313.273px 279.549px;"><g id="elytu9jrjenke" class="animable" style="transform-origin: 313.273px 279.549px;"><g id="elsbiih5up4ol" class="animable" style="transform-origin: 289.395px 381.348px;"><path d="M322.52,301.95s1.88,45.35,4.07,54.73,9.69,41.91,11.57,53.79c1.88,11.88,1.56,20.95,1.56,20.95l11.26,.63s3.44-40.65,2.19-49.41c-1.25-8.76-4.69-31.9-4.69-36.28s7.51-43.78,7.51-43.78l-33.46-.63Z" style="fill: rgb(255, 255, 255); stroke: rgb(38, 50, 56); stroke-linecap: round; stroke-linejoin: round; transform-origin: 339.255px 367px;" id="eluirq31le72t" class="animable"></path><path d="M282.49,295.38s-6.25,35.96-7.82,46.91c-1.56,10.95-9.69,58.48-11.88,67.55-2.19,9.07-4.38,17.83-4.38,17.83l15.32,3.75,7.82-29.71s9.69-17.51,11.57-33.46c1.88-15.95,3.75-26.89,3.75-26.89l21.69-40.46-36.07-5.51Z" style="fill: rgb(255, 255, 255); stroke: rgb(38, 50, 56); stroke-linecap: round; stroke-linejoin: round; transform-origin: 288.485px 363.4px;" id="elglmjuidf7hi" class="animable"></path><g id="el6h25kk2994v" class="animable" style="transform-origin: 335.341px 446.922px;"><path d="M335.59,427.43s-1.51,17.61-1.89,18.74c-.38,1.14-4.73,6.25-5.68,6.82-.95,.57-11.93-.19-14.01,2.84-.77,1.12-1.33,4.73-.57,7.01,.76,2.27,15.15,5.11,22.15,4.35,7.01-.76,10.6-2.08,10.6-2.08,0,0,1.7,.57,4.17,.38,2.46-.19,6.29-2.73,6.82-4.17,1.51-4.17-1.51-13.25-1.51-16.85s.76-6.25,.76-6.82,1.14-7.38,0-8.71-13.44-3.6-20.83-1.51Z" style="fill: rgb(0, 255, 136); stroke: rgb(38, 50, 56); stroke-linecap: round; stroke-linejoin: round; transform-origin: 335.341px 446.949px;" id="eljqv4gg3cyxq" class="animable"></path><path d="M329.53,454.5s4.73,1.7,6.06,1.89c1.33,.19,8.14-5.11,8.52-8.33,.38-3.22-.76-2.65-3.22-3.03-2.46-.38-7.19,1.14-7.19,1.14" style="fill: none; stroke: rgb(38, 50, 56); stroke-linecap: round; stroke-linejoin: round; transform-origin: 336.856px 450.682px;" id="elcm1whyaty1" class="animable"></path><path d="M345.43,445.79s-.38-8.52-.38-12.69,.38-5.87,1.7-5.87" style="fill: none; stroke: rgb(38, 50, 56); stroke-linecap: round; stroke-linejoin: round; transform-origin: 345.9px 436.51px;" id="elwb5u2br4p8" class="animable"></path><path d="M345.43,436.32s4.92,.95,7.95,1.14l3.03,.19s.57-7.19,0-8.71c-.57-1.51-7.38-2.27-7.38-2.27,0,0-5.3-2.08-3.6,9.66Z" style="fill: none; stroke: rgb(38, 50, 56); stroke-linecap: round; stroke-linejoin: round; transform-origin: 350.879px 432.089px;" id="eldif9sit3fsr" class="animable"></path><path d="M338.24,427.05s-1.7,.38-1.7,2.84-.76,14.58-.76,14.58" style="fill: none; stroke: rgb(38, 50, 56); stroke-linecap: round; stroke-linejoin: round; transform-origin: 337.01px 435.76px;" id="el7yujucc2vkx" class="animable"></path><path d="M357.17,461.32c.28-.5,.3-1.77,.21-3.35-1.56,1.04-8.25,5.16-18.96,7.14-9.93,1.83-21.21-1.88-25.2-3.38,.03,.38,.09,.76,.21,1.11,.76,2.27,15.15,5.11,22.15,4.35,7.01-.76,10.6-2.08,10.6-2.08,0,0,1.7,.57,4.17,.38,2.46-.19,6.06-2.84,6.82-4.17Z" style="fill: rgb(38, 50, 56); stroke: rgb(38, 50, 56); stroke-linecap: round; stroke-linejoin: round; transform-origin: 335.324px 462.643px;" id="el8a2n6gbhbwv" class="animable"></path></g><g id="elvtf92n106e9" class="animable" style="transform-origin: 248.401px 443.088px;"><path d="M252.47,424.4l-.57,15.15s-6.63,2.65-10.41,3.6c-3.79,.95-5.49,.95-6.63,.95s-4.35-2.46-7.76-.76c-3.41,1.7-6.82,5.87-5.68,7.57s3.79,6.06,11.36,8.52c7.57,2.46,9.85,.19,12.69,0,2.84-.19,5.3,0,5.3,0l-.38,2.46s7.19,1.33,10.79,1.33,7.76-1.51,7.76-1.51l1.14-9.28,.95-9.47s5.11-12.69,4.54-13.82-8.52-3.6-14.2-4.92c-5.68-1.33-7.76-2.08-8.9,.19Z" style="fill: rgb(0, 255, 136); stroke: rgb(38, 50, 56); stroke-linecap: round; stroke-linejoin: round; transform-origin: 248.405px 443.088px;" id="els3rfjneelvh" class="animable"></path><path d="M261.18,463.21c3.6,0,7.76-1.51,7.76-1.51l.48-3.91c-7.54,1.78-13.61-.25-18.09-.25-5.11,0-9.09,1.7-17.99-.38-5.75-1.34-9.82-5.29-12-7.92-.21,.66-.22,1.24,.07,1.67,1.14,1.7,3.79,6.06,11.36,8.52,7.57,2.46,9.85,.19,12.69,0,2.84-.19,5.3,0,5.3,0l-.38,2.46s7.19,1.33,10.79,1.33Z" style="fill: rgb(38, 50, 56); stroke: rgb(38, 50, 56); stroke-linecap: round; stroke-linejoin: round; transform-origin: 245.303px 456.23px;" id="el39xwu77kilm" class="animable"></path><path d="M259.1,424.02l-.95,9.85,14.77,3.98,2.65-8.71s-10.98-4.73-16.47-5.11Z" style="fill: none; stroke: rgb(38, 50, 56); stroke-linecap: round; stroke-linejoin: round; transform-origin: 266.86px 430.935px;" id="el8a9ayf16bot" class="animable"></path><polyline points="257.39 435.57 255.12 442.19 253.42 440.87" style="fill: none; stroke: rgb(38, 50, 56); stroke-linecap: round; stroke-linejoin: round; transform-origin: 255.405px 438.88px;" id="eljt0ydkyluz" class="animable"></polyline><path d="M254.55,444.28s-5.68,3.79-9.09,4.54c-3.41,.76-5.11,.76-5.11,.76,0,0-1.51-1.7-1.7-3.6" style="fill: none; stroke: rgb(38, 50, 56); stroke-linecap: round; stroke-linejoin: round; transform-origin: 246.6px 446.93px;" id="el032mmuh2pgkm" class="animable"></path></g></g><g id="elfbtdzc5s235" class="animable" style="transform-origin: 367.202px 190.675px;"><path d="M346.91,110.03s37.48,4.88,47.49,11.04c10.01,6.16,11.55,13.86,6.93,22.85s-9.24,15.66-9.24,15.66l-4.11,40.05s2.05,15.15,2.82,30.03c.77,14.89,6.16,17.2-.51,29.01-6.67,11.81-20.24,13.57-26.18,12.32-5.94-1.25-10.78-8.73-11.29-9.5s-11.81-38.76-13.09-63.15c-1.28-24.39-1.54-30.03-8.21-48.26s2.05-32.34,3.85-36.45c1.8-4.11,11.55-3.59,11.55-3.59Z" style="fill: rgb(38, 50, 56); stroke: rgb(38, 50, 56); stroke-linecap: round; stroke-linejoin: round; transform-origin: 366.431px 190.675px;" id="elxnxwmr9h1f" class="animable"></path><path d="M404.16,129.8s-6.16-7.7-16.17-4.36c-10.01,3.34-21.05,13.35-23.1,21.31-2.05,7.96-2.66,8.91,.72,10.23,3.38,1.32,26.49,2.6,26.49,2.6,0,0,17.97-14.38,12.07-29.78Z" style="fill: rgb(168, 168, 168); stroke: rgb(38, 50, 56); stroke-linecap: round; stroke-linejoin: round; transform-origin: 384.286px 142.09px;" id="elao2v6e9qq" class="animable"></path><line x1="387.99" y1="199.62" x2="373.87" y2="200.39" style="fill: none; stroke: rgb(194, 194, 194); stroke-linecap: round; stroke-linejoin: round; transform-origin: 380.93px 200.005px;" id="elzv1z1jxsk5e" class="animable"></line><line x1="386.96" y1="203.99" x2="375.15" y2="204.76" style="fill: none; stroke: rgb(194, 194, 194); stroke-linecap: round; stroke-linejoin: round; transform-origin: 381.055px 204.375px;" id="el8txmfvjuybi" class="animable"></line></g><g id="eldsexjuryea7" class="animable" style="transform-origin: 257.684px 195.158px;"><path d="M291.1,182.93l-19.26,25.45s-19.59-15.24-23.44-20.09c-3.85-4.86-5.69-7.7-5.69-7.7,0,0,2.85-6.2,2.68-7.7-.17-1.51-1-4.02-.33-6.03,.67-2.01,2.85-4.69,2.51-5.53-.33-.84-4.35,.67-5.69,2.34-1.34,1.67-1.51,3.18-1.67,3.85-.17,.67-1.34,2.85-1.34,2.85,0,0-7.2-6.2-8.2-6.53s-2.68,.84-3.18,1.84-5.36,13.9-4.86,14.9c.5,1,7.03,4.35,9.21,5.02,2.18,.67,6.03,2.51,6.03,2.51,0,0,12.73,20.59,17.25,25.79,4.52,5.19,16.41,16.41,18.92,15.24,2.51-1.17,18.08-17.25,18.08-17.25,0,0-.67-9.71,.17-17.75s1.84-13.4,1.84-13.4l-3.01,2.18Z" style="fill: rgb(255, 255, 255); stroke: rgb(38, 50, 56); stroke-linecap: round; stroke-linejoin: round; transform-origin: 258.362px 195.158px;" id="elbr2qmu35tqm" class="animable"></path><path d="M228.17,162.33c-.28-.28-.73-.26-.99,.05-.9,1.09-2.81,3.5-2.56,4.15,.33,.84,4.35,4.69,5.53,5.02,1.17,.33,3.68-2.18,2.85-3.52-.72-1.14-3.51-4.37-4.83-5.7Z" style="fill: rgb(255, 255, 255); stroke: rgb(38, 50, 56); stroke-linecap: round; stroke-linejoin: round; transform-origin: 228.881px 166.856px;" id="elqybauh35yw" class="animable"></path><path d="M224.85,167.03s-1.91,1.56-2.19,2.48c-.28,.92-.64,3.04,0,3.61,.64,.57,4.74,2.69,5.52,2.48,.78-.21,1.91-1.7,1.91-2.41s-2.26-2.76-3.4-3.82c-1.13-1.06-1.84-2.34-1.84-2.34Z" style="fill: rgb(255, 255, 255); stroke: rgb(38, 50, 56); stroke-linecap: round; stroke-linejoin: round; transform-origin: 226.196px 171.322px;" id="elultdsq3dtci" class="animable"></path><path d="M222.79,173.61s-1.34,.42-1.42,1.63c-.07,1.2-.35,2.69,.21,3.33,.57,.64,4.46,1.34,5.52,.85,1.06-.5,.99-2.41,.64-2.76s-4.95-3.04-4.95-3.04Z" style="fill: rgb(255, 255, 255); stroke: rgb(38, 50, 56); stroke-linecap: round; stroke-linejoin: round; transform-origin: 224.605px 176.597px;" id="elwfwlglmklpp" class="animable"></path><path d="M221.73,179.27s-.14,1.98,.35,2.55c.5,.57,4.6,.92,5.38,.64,.78-.28-.35-3.04-.35-3.04l-5.38-.14Z" style="fill: rgb(255, 255, 255); stroke: rgb(38, 50, 56); stroke-linecap: round; stroke-linejoin: round; transform-origin: 224.723px 180.914px;" id="el6xg0fjhrt3g" class="animable"></path><path d="M238.86,170.37s-1.27,1.54-1.69,1.82c-.42,.28-3.4,2.62-3.26,4.39,.14,1.77,.99,2.62,.99,2.62" style="fill: none; stroke: rgb(38, 50, 56); stroke-linecap: round; stroke-linejoin: round; transform-origin: 236.383px 174.785px;" id="el9jr6sj1sg2n" class="animable"></path></g><g id="elrkm32nyi41" class="animable" style="transform-origin: 318.735px 280.563px;"><path d="M287.08,259.45l-6.79,20.14-4.97,15.69s15.69,4.18,23.8,5.49c8.11,1.31,18.83,1.31,18.83,1.31l.52,3.4s33.73,1.57,37.92,1.05c4.18-.52,7.58-1.83,7.58-1.83,0,0-.26-23.01-1.05-26.67-.78-3.66-2.17-11.03-2.17-11.03l-.71-6.49s-38.18-2.35-52.82-4.18c-14.64-1.83-17.52-2.61-17.52-2.61l-2.62,5.75Z" style="fill: rgb(168, 168, 168); stroke: rgb(38, 50, 56); stroke-linecap: round; stroke-linejoin: round; transform-origin: 319.645px 280.178px;" id="elzr6um8is9p" class="animable"></path><polyline points="306.82 279.26 318.9 285.29 318.56 300.89" style="fill: none; stroke: rgb(38, 50, 56); stroke-linecap: round; stroke-linejoin: round; transform-origin: 312.86px 290.075px;" id="eldee4lt08dm6" class="animable"></polyline><path d="M318.23,297.03l.24,8.44s7.64,1.12,22.07,1.79c14.42,.67,23.65-1.17,23.65-1.17l-.67-7.04s-28.18-1.01-34.04-.84c-3.62,.1-11.24-1.17-11.24-1.17Z" style="fill: rgb(209, 209, 209); stroke: rgb(38, 50, 56); stroke-linecap: round; stroke-linejoin: round; transform-origin: 341.21px 302.218px;" id="el4x5zo79hhfd" class="animable"></path><path d="M275.8,288.82l-2.52,7.38s5.87,3.19,17.27,5.7c11.4,2.52,27.91,3.58,27.91,3.58l-.41-7.1s-34.55-5.37-42.26-9.56Z" style="fill: rgb(209, 209, 209); stroke: rgb(38, 50, 56); stroke-linecap: round; stroke-linejoin: round; transform-origin: 295.87px 297.15px;" id="el6g1unq0rnv8" class="animable"></path><path d="M348.79,270.05s2.5,5.63,10.01,5.94" style="fill: none; stroke: rgb(38, 50, 56); stroke-linecap: round; stroke-linejoin: round; transform-origin: 353.795px 273.02px;" id="elovz886fe0qj" class="animable"></path><path d="M358.17,269.74s5,16.26,2.81,26.89" style="fill: none; stroke: rgb(38, 50, 56); stroke-linecap: round; stroke-linejoin: round; transform-origin: 359.852px 283.185px;" id="ely57f1wg276p" class="animable"></path></g><path d="M321.56,156.77s-13.55,5.4-18.41,8.41-9.88,27.96-10.38,37.67,3.68,18.59,3.85,19.59c.17,1-.33,6.86-1.17,9.21-.84,2.34-5.02,16.07-5.86,18.25s-2.51,9.54-2.51,9.54c0,0,21.26,7.37,39.52,9.21,18.25,1.84,34.16-1.67,34.16-1.67,0,0,.84-6.03-1.84-14.57s-7.37-27.29-7.37-29.97,6.53-23.78,9.21-36.5c2.68-12.73,1.84-17.41-1-19.93-2.85-2.51-16.11-6.19-16.11-6.19l-22.08-3.05Z" style="fill: rgb(0, 255, 136); stroke: rgb(38, 50, 56); stroke-linecap: round; stroke-linejoin: round; transform-origin: 324.733px 212.977px;" id="elbqr2d1dlbdm" class="animable"></path><g id="el809aob9ub1y" class="animable" style="transform-origin: 360.039px 196.705px;"><path d="M359.75,166.02s5.69,.5,8.71,10.21c3.01,9.71,8.2,48.89,8.54,52.41s-8.54,.67-8.54,.67c0,0-6.03-4.52-8.04-11.22-2.01-6.7-3.68-15.4-3.68-15.4,0,0-6.53,3.68-11.05-1.17-4.52-4.86-2.34-21.6,.17-28.3,2.51-6.7,7.53-10.21,7.53-10.21l6.36,3.01Z" style="fill: rgb(255, 255, 255); stroke: rgb(38, 50, 56); stroke-linecap: round; stroke-linejoin: round; transform-origin: 360.039px 196.705px;" id="eltncjpvgbssi" class="animable"></path><line x1="356.73" y1="202.69" x2="353.22" y2="192.14" style="fill: none; stroke: rgb(38, 50, 56); stroke-linecap: round; stroke-linejoin: round; transform-origin: 354.975px 197.415px;" id="elznba9v3y6on" class="animable"></line></g><path d="M308.73,195.77s-.82,14.24-.86,18.45c-.05,4.22,1.74,7.8,4.08,8.15,3.94,.58,7.96-4.23,7.53-8.23-.43-4-1.24-5.25-4.2-6.11-2.96-.86-5.92-.2-5.92-.2l.33-4.75s4.82,2.51,7.69,1.02c2.87-1.49,3.39-9.12,1.18-12.42-2.21-3.3-7.64-3.72-9.83,4.1Z" style="fill: rgb(38, 50, 56); stroke: rgb(38, 50, 56); stroke-linecap: round; stroke-linejoin: round; transform-origin: 313.899px 205.93px;" id="elbqu6ddpmx9" class="animable"></path><path d="M321.4,155.64s-2.25-2.08-6.03-1c-4.38,1.25-14.12,6.92-16.91,8.54-5.19,3.01-7.87,18.08-10.05,26.79-2.18,8.71-3.18,16.07-.67,19.93,2.51,3.85,8.87,12.56,8.87,12.56,0,0-3.35-9.71-3.35-13.56s1.17-12.06,2.85-20.09c1.67-8.04,6.7-20.43,7.87-21.43,1.17-1,17.41-11.72,17.41-11.72Z" style="fill: rgb(38, 50, 56); stroke: rgb(38, 50, 56); stroke-linecap: round; stroke-linejoin: round; transform-origin: 303.831px 188.395px;" id="elm9tma9fgtcf" class="animable"></path><path d="M353.22,154.8s-11.22,12.56-13.73,21.43c-2.51,8.87,0,32.82,1.51,36.67,1.51,3.85,8.04,14.4,10.05,17.08,2.01,2.68,9.38,11.05,10.05,11.05s2.34-2.18,2.34-2.18c0,0-12.22-24.45-13.23-30.64s-.33-25.95,.84-29.97c1.17-4.02,13.9-20.43,14.57-21.26,.67-.84-10.21-2.68-12.39-2.18Z" style="fill: rgb(38, 50, 56); stroke: rgb(38, 50, 56); stroke-linecap: round; stroke-linejoin: round; transform-origin: 352.037px 197.873px;" id="elcoytvpl24is" class="animable"></path><g id="el1z9jq7ylvru" class="animable" style="transform-origin: 328.391px 141.329px;"><path d="M318.09,151.08s0,3.89-.28,5.69c-.28,1.81-6.25,5.97-10.28,15.83-4.03,9.86-.28,21.11,11.52,17.63,11.8-3.47,18.61-18.61,20.55-23.19,1.94-4.58,4.03-7.22,4.03-7.22,0,0-5-.83-7.36-6.11-2.36-5.28-3.89-14.86-3.89-14.86l-14.3,12.22Z" style="fill: rgb(255, 255, 255); stroke: rgb(38, 50, 56); stroke-linecap: round; stroke-linejoin: round; transform-origin: 324.799px 164.863px;" id="eleoh8xu7avs" class="animable"></path><path d="M317.81,156.77s-.28,5.14-1.94,7.64c0,0,4.17-2.64,5.69-7.64,1.53-5,6.67-11.03,6.67-11.03l-10.28,6.59-.14,4.44Z" style="fill: rgb(38, 50, 56); stroke: rgb(38, 50, 56); stroke-linecap: round; stroke-linejoin: round; transform-origin: 322.05px 155.075px;" id="elwdme4ff48s" class="animable"></path><g id="el99n420z32uv" class="animable" style="transform-origin: 328.391px 122.96px;"><path d="M341.14,99.29s1.11-2.78,7.36-.69c6.25,2.08,10.83,14.86,9.58,21.38s-8.47,12.22-8.47,13.75,1.11,1.94,1.11,1.94c0,0-4.56,1.21-6.8-4.58-2.24-5.79-.69-10.55-.56-11.53,.14-.97,.42-12.08-.97-15.83-1.39-3.75-1.25-4.44-1.25-4.44Z" style="fill: rgb(110, 110, 110); stroke: rgb(38, 50, 56); stroke-linecap: round; stroke-linejoin: round; transform-origin: 349.711px 116.798px;" id="elb1c46i53jcj" class="animable"></path><path d="M310.45,96.79s-8.05,5.83-9.16,17.77c-.82,8.85,.69,8.89,.28,13.05-.42,4.17,.14,9.03,2.78,13.75,2.64,4.72,6.94,12.64,9.58,12.77,2.64,.14,6.11-1.94,6.11-1.94,0,0,10.69-7.78,13.19-11.25s2.64-7.78,2.64-7.78c0,0,3.33-2.22,6.94-9.72,3.08-6.39,2.92-14.86,.83-20.27-2.08-5.42-5-10.14-15.97-11.25-10.97-1.11-17.22,4.86-17.22,4.86Z" style="fill: rgb(255, 255, 255); stroke: rgb(38, 50, 56); stroke-linecap: round; stroke-linejoin: round; transform-origin: 323.107px 122.96px;" id="elowv2x3ub07" class="animable"></path><path d="M343.64,103.17c-2.08-5.42-5-10.14-15.97-11.25-5.33-.54-9.54,.6-12.46,1.9l-.87,5.6,7.08,5.69s-1.67,3.61,1.94,7.78c3.61,4.17,9.86,8.75,9.86,8.75,0,0-.14,3.75,.69,3.89,.83,.14,4.17-3.19,4.17-3.19l3.59,2.96c.37-.59,.75-1.2,1.13-1.85,3.61-6.11,2.92-14.86,.83-20.27Z" style="fill: rgb(110, 110, 110); stroke: rgb(38, 50, 56); stroke-linecap: round; stroke-linejoin: round; transform-origin: 329.846px 108.658px;" id="elpxulw2otyee" class="animable"></path><path d="M320.03,105.26s-4.58,2.36-11.66,5.83c-7.08,3.47-9.58,5.97-9.86,1.25-.28-4.72,3.61-8.89,7.91-9.72,4.3-.83,10.55,0,13.61,2.64Z" style="fill: rgb(110, 110, 110); stroke: rgb(38, 50, 56); stroke-linecap: round; stroke-linejoin: round; transform-origin: 309.263px 108.625px;" id="elti73t9zx9iq" class="animable"></path><path d="M304.9,103.87s2.36-5.69,15.41,2.78c13.05,8.47,19.72,21.24,19.72,21.24l2.78-4.44s-3.33-11.25-9.86-19.58c-7.23-9.23-18.09-11.31-17.5-10.28-.7-.1-8.32,3.25-10.55,10.28Z" style="fill: rgb(0, 255, 136); stroke: rgb(38, 50, 56); stroke-linecap: round; stroke-linejoin: round; transform-origin: 323.855px 110.62px;" id="elc3vzstrbgah" class="animable"></path><path d="M301.98,120.81s2.5-3.05,5-.28" style="fill: none; stroke: rgb(38, 50, 56); stroke-linecap: round; stroke-linejoin: round; transform-origin: 304.48px 120.089px;" id="elhenfl91wnq8" class="animable"></path><path d="M315.73,121.36s3.47-2.08,6.25,2.22" style="fill: none; stroke: rgb(38, 50, 56); stroke-linecap: round; stroke-linejoin: round; transform-origin: 318.855px 122.219px;" id="el78nm15kr8ot" class="animable"></path><path d="M309.06,121.5s2.36,6.53,1.81,8.75c-.56,2.22-4.58,4.17-4.44,5.55,.14,1.39,1.11,2.78,3.75,1.81" style="fill: none; stroke: rgb(38, 50, 56); stroke-linecap: round; stroke-linejoin: round; transform-origin: 308.69px 129.717px;" id="elm852r8jtxs" class="animable"></path><path d="M309.48,141.36s5.42,2.22,10.14-2.64" style="fill: none; stroke: rgb(38, 50, 56); stroke-linecap: round; stroke-linejoin: round; transform-origin: 314.55px 140.293px;" id="el9hbwpvrgg8w" class="animable"></path><path d="M306.56,126.99c0,1.04-.44,1.87-.97,1.87s-.97-.84-.97-1.87,.44-1.87,.97-1.87,.97,.84,.97,1.87Z" style="fill: rgb(38, 50, 56); transform-origin: 305.59px 126.99px;" id="elbaaqzeznws" class="animable"></path><path d="M318.23,128.31c0,1.04-.44,1.87-.97,1.87s-.97-.84-.97-1.87,.44-1.87,.97-1.87,.97,.84,.97,1.87Z" style="fill: rgb(38, 50, 56); transform-origin: 317.26px 128.31px;" id="eladm2lov2pqw" class="animable"></path></g></g><line x1="337.16" y1="151.11" x2="350.51" y2="153.93" style="fill: none; stroke: rgb(38, 50, 56); stroke-linecap: round; stroke-linejoin: round; transform-origin: 343.835px 152.52px;" id="elckmcnqp8cqd" class="animable"></line><g id="eljdq304r0kmd" class="animable" style="transform-origin: 341.539px 260.335px;"><path d="M391.32,235.05s-12.32,5.39-20.79,6.93c-8.47,1.54-15.66-2.31-22.33,2.05-6.67,4.36-6.16,13.86-.51,17.46,5.65,3.59,13.35,6.93,22.59,5.65,9.24-1.28,14.12-2.57,18.48-5.9,4.36-3.34,5.39-9.24,5.13-13.35-.26-4.11-2.57-12.84-2.57-12.84Z" style="fill: rgb(168, 168, 168); stroke: rgb(38, 50, 56); stroke-linecap: round; stroke-linejoin: round; transform-origin: 368.626px 251.234px;" id="elga2l7eku4ko" class="animable"></path><path d="M291.47,244.8s24.76,10.6,67.44,7.61l1.13,8.08s-47.78,1.25-70.89-9.02l2.31-6.67Z" style="fill: rgb(38, 50, 56); stroke: rgb(38, 50, 56); stroke-linecap: round; stroke-linejoin: round; transform-origin: 324.595px 252.669px;" id="el780d7z4ryi" class="animable"></path><polygon points="330.48 252.76 328.43 285.62 332.79 284.08 333.31 252.51 330.48 252.76" style="fill: rgb(38, 50, 56); stroke: rgb(38, 50, 56); stroke-linecap: round; stroke-linejoin: round; transform-origin: 330.87px 269.065px;" id="el4fjbh1orek" class="animable"></polygon><polygon points="322.95 251.92 322.2 258.67 329.57 259.55 330.48 252.76 322.95 251.92" style="fill: rgb(168, 168, 168); stroke: rgb(38, 50, 56); stroke-linecap: round; stroke-linejoin: round; transform-origin: 326.34px 255.735px;" id="ell2agrcis2s" class="animable"></polygon></g><path d="M351.54,202.69s-1.17-7.2-1.67-8.71c-.5-1.51-9.88-7.37-12.06-8.2-2.18-.84-3.18,.67-3.35,2.01s.33,2.51,.33,2.51c0,0-3.01,8.04-2.68,9.38,.33,1.34,2.85,5.19,4.86,6.2,2.01,1,6.53,2.51,7.53,3.18,1,.67,12.22,21.1,12.22,21.1,0,0,11.22,13.73,14.06,14.9,2.85,1.17,5.19-2.01,6.7-6.86,1.51-4.86-.33-12.56-2.51-14.4-2.18-1.84-13.23-10.21-17.25-13.23-4.02-3.01-6.2-7.87-6.2-7.87Z" style="fill: rgb(255, 255, 255); stroke: rgb(38, 50, 56); stroke-linecap: round; stroke-linejoin: round; transform-origin: 355.058px 215.42px;" id="elufy11dw7tt" class="animable"></path></g></g><defs>     <filter id="active" height="200%">         <feMorphology in="SourceAlpha" result="DILATED" operator="dilate" radius="2"></feMorphology>                <feFlood flood-color="#32DFEC" flood-opacity="1" result="PINK"></feFlood>        <feComposite in="PINK" in2="DILATED" operator="in" result="OUTLINE"></feComposite>        <feMerge>            <feMergeNode in="OUTLINE"></feMergeNode>            <feMergeNode in="SourceGraphic"></feMergeNode>        </feMerge>    </filter>    <filter id="hover" height="200%">        <feMorphology in="SourceAlpha" result="DILATED" operator="dilate" radius="2"></feMorphology>                <feFlood flood-color="#ff0000" flood-opacity="0.5" result="PINK"></feFlood>        <feComposite in="PINK" in2="DILATED" operator="in" result="OUTLINE"></feComposite>        <feMerge>            <feMergeNode in="OUTLINE"></feMergeNode>            <feMergeNode in="SourceGraphic"></feMergeNode>        </feMerge>            <feColorMatrix type="matrix" values="0   0   0   0   0                0   1   0   0   0                0   0   0   0   0                0   0   0   1   0 "></feColorMatrix>    </filter></defs></svg>